<svg width="200" height="36" viewBox="0 0 200 36" fill="none" xmlns="http://www.w3.org/2000/svg">
<rect width="200" height="36" rx="10" fill="#F2F2F9"/>
<path d="M30.5 15.5L39.5 9M30.5 15.5L34 26M30.5 15.5L34.5 16.6667M39.5 9L48.5 15.5M39.5 9V13M48.5 15.5L45 26M48.5 15.5L45 16.6667M45 26H34M45 26L42.25 22.25M34 26L36.75 22.25M39.5 18.5V13M39.5 18.5L34.5 16.6667M39.5 18.5L36.75 22.25M39.5 18.5L42.25 22.25M39.5 18.5L45 16.6667M39.5 13L34.5 16.6667M39.5 13L45 16.6667M34.5 16.6667L36.75 22.25M36.75 22.25H42.25M42.25 22.25L45 16.6667" stroke="#A7A9AB" stroke-linecap="round" stroke-linejoin="round"/>
<path d="M54.6523 13.7109L55.5781 13.9219C55 15.4922 54.1836 16.8008 53.1289 17.8477C52.9961 17.9727 52.8672 18.0898 52.7422 18.1992C52.5156 17.9648 52.2656 17.75 51.9922 17.5547C52.9688 16.8125 53.75 15.793 54.3359 14.4961C54.4531 14.2305 54.5586 13.9688 54.6523 13.7109ZM53.7734 17.1562H60.9922C60.9922 17.1641 60.9844 17.3047 60.9688 17.5781C60.8203 20.2812 60.625 21.9453 60.3828 22.5703C60.3125 22.75 60.2344 22.8867 60.1484 22.9805C59.9531 23.207 59.6836 23.3398 59.3398 23.3789C59.3008 23.3867 59.2656 23.3906 59.2344 23.3906C58.8594 23.4141 58.3008 23.4062 57.5586 23.3672C57.5195 23.0234 57.4219 22.7383 57.2656 22.5117C57.7344 22.5508 58.2812 22.5703 58.9062 22.5703C59.1406 22.5625 59.3008 22.5156 59.3867 22.4297C59.668 22.1484 59.8789 20.8594 60.0195 18.5625C60.0352 18.375 60.0469 18.1875 60.0547 18H56.9727C56.5508 20.1797 55.6172 21.793 54.1719 22.8398C53.875 23.0508 53.5586 23.2422 53.2227 23.4141C53.0117 23.1484 52.7812 22.918 52.5312 22.7227C54.0312 22.0586 55.0625 20.9453 55.625 19.3828C55.7812 18.9609 55.9062 18.5 56 18H53.7734V17.1562ZM55.9297 12.668H59.6797C60.1016 14.1133 60.8086 15.3359 61.8008 16.3359C62.2148 16.7422 62.6406 17.0742 63.0781 17.332C62.8438 17.5508 62.6367 17.8125 62.457 18.1172C61.3164 17.375 60.3672 16.2812 59.6094 14.8359C59.3828 14.3984 59.1914 13.9531 59.0352 13.5H55.9297V12.668ZM68.5391 18.9727L67.9883 19.6875C67.7852 19.3047 67.4102 18.7344 66.8633 17.9766V23.4023H66.0195V17.6719C65.5039 19.2188 64.9492 20.3867 64.3555 21.1758C64.2852 21.0117 64.1289 20.7461 63.8867 20.3789C64.5273 19.5898 65.0898 18.4609 65.5742 16.9922C65.707 16.6016 65.8164 16.2266 65.9023 15.8672H64.1562V15.0234H66.0195V12.457H66.8633V15.0234H68.5039V15.8672H66.8633V16.9219C67.2305 17.3359 67.7891 18.0195 68.5391 18.9727ZM75.0078 16.5352V17.3906H73.2266V23.4141H72.3477V17.3906H70.168C70.1133 19.9766 69.5625 21.9688 68.5156 23.3672C68.3906 23.1797 68.1836 22.9922 67.8945 22.8047C67.8711 22.7969 67.8555 22.7891 67.8477 22.7812C68.7773 21.5547 69.2656 19.7773 69.3125 17.4492C69.3203 17.2461 69.3242 17.0312 69.3242 16.8047V13.4297L70.0742 13.6523C71.6523 13.3242 72.8633 12.9727 73.707 12.5977L74.4688 13.2891C73.4766 13.7031 72.0469 14.0781 70.1797 14.4141V16.5352H75.0078Z" fill="#A7A9AB"/>
<rect x="100" y="3" width="95" height="29" rx="8" fill="white"/>
<path d="M143.5 25.5H127.5V9.5" stroke="#857EF7" stroke-width="1.5" stroke-linecap="round" stroke-linejoin="round"/>
<path d="M127.5 22L135.5 14.5L138.5 17.5L143 13" stroke="#857EF7" stroke-width="1.5" stroke-linecap="round" stroke-linejoin="round"/>
<path d="M151.145 19.1953V21.7383C151.824 22.0742 152.855 22.2422 154.238 22.2422C156.957 22.2422 158.559 22.2344 159.043 22.2188C158.871 22.4609 158.746 22.7539 158.668 23.0977H154.238C152.652 23.0977 151.488 22.8984 150.746 22.5C150.129 22.1562 149.641 21.625 149.281 20.9062C149.109 21.9141 148.824 22.7422 148.426 23.3906C148.262 23.1719 148.078 23.0039 147.875 22.8867C147.859 22.8789 147.848 22.875 147.84 22.875C148.465 21.7891 148.754 20.1133 148.707 17.8477L149.457 17.8945C149.465 18.3086 149.457 18.793 149.434 19.3477C149.66 20.1211 149.965 20.7148 150.348 21.1289V16.8984H148.121V16.1016H150.102V14.6953H148.438V13.9102H150.102V12.457H150.91V13.9102H152.48V14.6953H150.91V16.1016H152.785V16.8984H151.145V18.4219H152.633V18.9844C153.133 18.4766 153.551 17.8789 153.887 17.1914C153.848 17.1992 153.785 17.2148 153.699 17.2383C153.512 17.293 153.371 17.332 153.277 17.3555C153.191 17.168 153.074 17.0078 152.926 16.875C153.91 16.6953 154.531 16.3984 154.789 15.9844H153.441V14.9414C153.363 15.0352 153.254 15.1523 153.113 15.293C152.926 15.1523 152.703 15 152.445 14.8359C153.148 14.2344 153.699 13.4609 154.098 12.5156C154.113 12.4766 154.129 12.4375 154.145 12.3984L154.918 12.5859C154.863 12.7266 154.77 12.9258 154.637 13.1836H158.656C158.656 13.1914 158.648 13.3008 158.633 13.5117C158.531 15.2773 158.387 16.332 158.199 16.6758C158.168 16.7305 158.137 16.7734 158.105 16.8047C157.957 16.9609 157.742 17.0508 157.461 17.0742C157.125 17.0898 156.746 17.082 156.324 17.0508C156.309 16.8477 156.246 16.6484 156.137 16.4531C156.504 16.4922 156.836 16.5117 157.133 16.5117C157.281 16.5039 157.391 16.4648 157.461 16.3945C157.641 16.1992 157.777 15.3477 157.871 13.8398H154.273C154.148 14.0352 154.012 14.2305 153.863 14.4258H154.051V15.4219H154.93V14.1797H155.551V15.4219H156.441V14.4258H157.074V15.9844H155.469C155.328 16.3828 155.004 16.707 154.496 16.957L154.824 17.0391C154.754 17.2109 154.656 17.4141 154.531 17.6484H158.703C158.703 17.6562 158.695 17.7695 158.68 17.9883C158.578 19.8086 158.438 20.9062 158.258 21.2812C158.211 21.3594 158.168 21.4219 158.129 21.4688C157.98 21.625 157.766 21.7148 157.484 21.7383C157.273 21.7617 156.887 21.7578 156.324 21.7266C156.309 21.5078 156.246 21.3008 156.137 21.1055C156.434 21.1289 156.77 21.1406 157.145 21.1406C157.309 21.1484 157.422 21.1133 157.484 21.0352C157.664 20.8477 157.805 19.9453 157.906 18.3281C157.906 18.3203 157.906 18.3125 157.906 18.3047H154.156C153.969 18.5859 153.824 18.7891 153.723 18.9141H153.945V19.957H154.836V18.668H155.492V19.957H156.406V18.9141H157.051V20.5547H155.375C155.117 21.1953 154.398 21.6641 153.219 21.9609C153.117 21.75 152.984 21.5859 152.82 21.4688C153.711 21.2812 154.309 20.9766 154.613 20.5547H153.312V19.418C153.289 19.4414 153.191 19.5391 153.02 19.7109C152.801 19.5312 152.578 19.375 152.352 19.2422L152.41 19.1953H151.145ZM163.297 15.0234H162.383C162.195 15.8281 161.566 16.3906 160.496 16.7109C160.41 16.5 160.285 16.3086 160.121 16.1367C160.996 15.9336 161.516 15.5625 161.68 15.0234H160.18V14.4023H162.453V13.7578H160.66V13.1602H162.453V12.457H163.273V13.1602H165.09V13.7578H163.273V14.4023H165.582V15.0234H163.988V15.5742C163.988 15.6992 164.016 15.7656 164.07 15.7734C164.102 15.7812 164.141 15.7852 164.188 15.7852H164.762C164.871 15.7852 164.938 15.7383 164.961 15.6445C164.977 15.5742 164.988 15.4805 164.996 15.3633C165.137 15.4648 165.328 15.5312 165.57 15.5625C165.539 15.9766 165.406 16.2188 165.172 16.2891C165.086 16.3125 164.988 16.3242 164.879 16.3242H164.094C163.695 16.3242 163.453 16.2422 163.367 16.0781C163.32 15.9609 163.297 15.793 163.297 15.5742V15.0234ZM165.324 18.0938L165.312 18.7148C164.828 18.7539 164.105 18.8125 163.145 18.8906C161.707 19.0156 160.711 19.0977 160.156 19.1367L160.109 18.457C161.047 18.4023 161.828 18.3516 162.453 18.3047V17.4844H160.637V16.8867H162.453V16.2188H163.273V16.8867H165.137V17.4844H163.273V18.2578L165.324 18.0938ZM169.941 19.8867L169.906 20.2852C169.75 21.7773 169.535 22.6875 169.262 23.0156C169.238 23.0469 169.215 23.0742 169.191 23.0977C168.98 23.2773 168.699 23.3789 168.348 23.4023C167.848 23.418 167.281 23.4102 166.648 23.3789C166.633 23.0742 166.547 22.8047 166.391 22.5703C166.93 22.6172 167.465 22.6406 167.996 22.6406C168.23 22.6328 168.387 22.6016 168.465 22.5469C168.668 22.3516 168.836 21.7031 168.969 20.6016H165.523C165.172 21.5078 164.527 22.1875 163.59 22.6406C162.855 22.9922 161.867 23.2578 160.625 23.4375C160.531 23.1641 160.395 22.918 160.215 22.6992C162.082 22.457 163.355 22.0078 164.035 21.3516C164.254 21.1328 164.434 20.8828 164.574 20.6016H160.883V19.8867H164.844C164.898 19.6602 164.945 19.418 164.984 19.1602H165.887C165.855 19.3711 165.805 19.6133 165.734 19.8867H169.941ZM167.949 13.8867H169.918C169.918 16.0898 169.969 17.4492 170.07 17.9648C170.148 18.332 170.262 18.5195 170.41 18.5273C170.535 18.5117 170.605 18.0117 170.621 17.0273C170.801 17.2305 170.977 17.3906 171.148 17.5078C171.102 18.375 170.988 18.9062 170.809 19.1016C170.691 19.2266 170.535 19.2891 170.34 19.2891C169.824 19.2891 169.48 18.8242 169.309 17.8945C169.199 17.2773 169.137 16.1836 169.121 14.6133H167.902C167.855 15.2461 167.773 15.8086 167.656 16.3008C168.219 16.6602 168.629 16.9648 168.887 17.2148L168.465 17.8828C168.199 17.6094 167.859 17.3242 167.445 17.0273C167.094 17.918 166.559 18.5938 165.84 19.0547C165.746 18.8594 165.594 18.6836 165.383 18.5273C165.359 18.5117 165.34 18.5 165.324 18.4922C166.012 18.0469 166.5 17.4102 166.789 16.582C166.273 16.2852 165.895 16.0781 165.652 15.9609L166.051 15.3984C166.301 15.5156 166.605 15.6758 166.965 15.8789C167.035 15.543 167.09 15.1211 167.129 14.6133H165.863V13.8867H167.176C167.184 13.4648 167.195 12.9883 167.211 12.457H167.996C167.98 13.1055 167.965 13.582 167.949 13.8867Z" fill="#857EF7"/>
</svg>
