<svg width="200" height="36" viewBox="0 0 200 36" fill="none" xmlns="http://www.w3.org/2000/svg">
<rect width="200" height="36" rx="10" fill="#F2F7FF"/>
<rect x="4" y="3" width="95" height="29" rx="8" fill="white"/>
<path d="M27.5 15.5L36.5 9M27.5 15.5L31 26M27.5 15.5L31.5 16.6667M36.5 9L45.5 15.5M36.5 9V13M45.5 15.5L42 26M45.5 15.5L42 16.6667M42 26H31M42 26L39.25 22.25M31 26L33.75 22.25M36.5 18.5V13M36.5 18.5L31.5 16.6667M36.5 18.5L33.75 22.25M36.5 18.5L39.25 22.25M36.5 18.5L42 16.6667M36.5 13L31.5 16.6667M36.5 13L42 16.6667M31.5 16.6667L33.75 22.25M33.75 22.25H39.25M39.25 22.25L42 16.6667" stroke="#6598FD" stroke-linecap="round" stroke-linejoin="round"/>
<path d="M57.6523 13.7109L58.5781 13.9219C58 15.4922 57.1836 16.8008 56.1289 17.8477C55.9961 17.9727 55.8672 18.0898 55.7422 18.1992C55.5156 17.9648 55.2656 17.75 54.9922 17.5547C55.9688 16.8125 56.75 15.793 57.3359 14.4961C57.4531 14.2305 57.5586 13.9688 57.6523 13.7109ZM56.7734 17.1562H63.9922C63.9922 17.1641 63.9844 17.3047 63.9688 17.5781C63.8203 20.2812 63.625 21.9453 63.3828 22.5703C63.3125 22.75 63.2344 22.8867 63.1484 22.9805C62.9531 23.207 62.6836 23.3398 62.3398 23.3789C62.3008 23.3867 62.2656 23.3906 62.2344 23.3906C61.8594 23.4141 61.3008 23.4062 60.5586 23.3672C60.5195 23.0234 60.4219 22.7383 60.2656 22.5117C60.7344 22.5508 61.2812 22.5703 61.9062 22.5703C62.1406 22.5625 62.3008 22.5156 62.3867 22.4297C62.668 22.1484 62.8789 20.8594 63.0195 18.5625C63.0352 18.375 63.0469 18.1875 63.0547 18H59.9727C59.5508 20.1797 58.6172 21.793 57.1719 22.8398C56.875 23.0508 56.5586 23.2422 56.2227 23.4141C56.0117 23.1484 55.7812 22.918 55.5312 22.7227C57.0312 22.0586 58.0625 20.9453 58.625 19.3828C58.7812 18.9609 58.9062 18.5 59 18H56.7734V17.1562ZM58.9297 12.668H62.6797C63.1016 14.1133 63.8086 15.3359 64.8008 16.3359C65.2148 16.7422 65.6406 17.0742 66.0781 17.332C65.8438 17.5508 65.6367 17.8125 65.457 18.1172C64.3164 17.375 63.3672 16.2812 62.6094 14.8359C62.3828 14.3984 62.1914 13.9531 62.0352 13.5H58.9297V12.668ZM71.5391 18.9727L70.9883 19.6875C70.7852 19.3047 70.4102 18.7344 69.8633 17.9766V23.4023H69.0195V17.6719C68.5039 19.2188 67.9492 20.3867 67.3555 21.1758C67.2852 21.0117 67.1289 20.7461 66.8867 20.3789C67.5273 19.5898 68.0898 18.4609 68.5742 16.9922C68.707 16.6016 68.8164 16.2266 68.9023 15.8672H67.1562V15.0234H69.0195V12.457H69.8633V15.0234H71.5039V15.8672H69.8633V16.9219C70.2305 17.3359 70.7891 18.0195 71.5391 18.9727ZM78.0078 16.5352V17.3906H76.2266V23.4141H75.3477V17.3906H73.168C73.1133 19.9766 72.5625 21.9688 71.5156 23.3672C71.3906 23.1797 71.1836 22.9922 70.8945 22.8047C70.8711 22.7969 70.8555 22.7891 70.8477 22.7812C71.7773 21.5547 72.2656 19.7773 72.3125 17.4492C72.3203 17.2461 72.3242 17.0312 72.3242 16.8047V13.4297L73.0742 13.6523C74.6523 13.3242 75.8633 12.9727 76.707 12.5977L77.4688 13.2891C76.4766 13.7031 75.0469 14.0781 73.1797 14.4141V16.5352H78.0078Z" fill="#6598FD"/>
<path d="M142 26H126V10" stroke="#A7A9AB" stroke-width="1.5" stroke-linecap="round" stroke-linejoin="round"/>
<path d="M126 22.5L134 15L137 18L141.5 13.5" stroke="#A7A9AB" stroke-width="1.5" stroke-linecap="round" stroke-linejoin="round"/>
<path d="M155.645 19.6953V22.2383C156.324 22.5742 157.355 22.7422 158.738 22.7422C161.457 22.7422 163.059 22.7344 163.543 22.7188C163.371 22.9609 163.246 23.2539 163.168 23.5977H158.738C157.152 23.5977 155.988 23.3984 155.246 23C154.629 22.6562 154.141 22.125 153.781 21.4062C153.609 22.4141 153.324 23.2422 152.926 23.8906C152.762 23.6719 152.578 23.5039 152.375 23.3867C152.359 23.3789 152.348 23.375 152.34 23.375C152.965 22.2891 153.254 20.6133 153.207 18.3477L153.957 18.3945C153.965 18.8086 153.957 19.293 153.934 19.8477C154.16 20.6211 154.465 21.2148 154.848 21.6289V17.3984H152.621V16.6016H154.602V15.1953H152.938V14.4102H154.602V12.957H155.41V14.4102H156.98V15.1953H155.41V16.6016H157.285V17.3984H155.645V18.9219H157.133V19.4844C157.633 18.9766 158.051 18.3789 158.387 17.6914C158.348 17.6992 158.285 17.7148 158.199 17.7383C158.012 17.793 157.871 17.832 157.777 17.8555C157.691 17.668 157.574 17.5078 157.426 17.375C158.41 17.1953 159.031 16.8984 159.289 16.4844H157.941V15.4414C157.863 15.5352 157.754 15.6523 157.613 15.793C157.426 15.6523 157.203 15.5 156.945 15.3359C157.648 14.7344 158.199 13.9609 158.598 13.0156C158.613 12.9766 158.629 12.9375 158.645 12.8984L159.418 13.0859C159.363 13.2266 159.27 13.4258 159.137 13.6836H163.156C163.156 13.6914 163.148 13.8008 163.133 14.0117C163.031 15.7773 162.887 16.832 162.699 17.1758C162.668 17.2305 162.637 17.2734 162.605 17.3047C162.457 17.4609 162.242 17.5508 161.961 17.5742C161.625 17.5898 161.246 17.582 160.824 17.5508C160.809 17.3477 160.746 17.1484 160.637 16.9531C161.004 16.9922 161.336 17.0117 161.633 17.0117C161.781 17.0039 161.891 16.9648 161.961 16.8945C162.141 16.6992 162.277 15.8477 162.371 14.3398H158.773C158.648 14.5352 158.512 14.7305 158.363 14.9258H158.551V15.9219H159.43V14.6797H160.051V15.9219H160.941V14.9258H161.574V16.4844H159.969C159.828 16.8828 159.504 17.207 158.996 17.457L159.324 17.5391C159.254 17.7109 159.156 17.9141 159.031 18.1484H163.203C163.203 18.1562 163.195 18.2695 163.18 18.4883C163.078 20.3086 162.938 21.4062 162.758 21.7812C162.711 21.8594 162.668 21.9219 162.629 21.9688C162.48 22.125 162.266 22.2148 161.984 22.2383C161.773 22.2617 161.387 22.2578 160.824 22.2266C160.809 22.0078 160.746 21.8008 160.637 21.6055C160.934 21.6289 161.27 21.6406 161.645 21.6406C161.809 21.6484 161.922 21.6133 161.984 21.5352C162.164 21.3477 162.305 20.4453 162.406 18.8281C162.406 18.8203 162.406 18.8125 162.406 18.8047H158.656C158.469 19.0859 158.324 19.2891 158.223 19.4141H158.445V20.457H159.336V19.168H159.992V20.457H160.906V19.4141H161.551V21.0547H159.875C159.617 21.6953 158.898 22.1641 157.719 22.4609C157.617 22.25 157.484 22.0859 157.32 21.9688C158.211 21.7812 158.809 21.4766 159.113 21.0547H157.812V19.918C157.789 19.9414 157.691 20.0391 157.52 20.2109C157.301 20.0312 157.078 19.875 156.852 19.7422L156.91 19.6953H155.645ZM167.797 15.5234H166.883C166.695 16.3281 166.066 16.8906 164.996 17.2109C164.91 17 164.785 16.8086 164.621 16.6367C165.496 16.4336 166.016 16.0625 166.18 15.5234H164.68V14.9023H166.953V14.2578H165.16V13.6602H166.953V12.957H167.773V13.6602H169.59V14.2578H167.773V14.9023H170.082V15.5234H168.488V16.0742C168.488 16.1992 168.516 16.2656 168.57 16.2734C168.602 16.2812 168.641 16.2852 168.688 16.2852H169.262C169.371 16.2852 169.438 16.2383 169.461 16.1445C169.477 16.0742 169.488 15.9805 169.496 15.8633C169.637 15.9648 169.828 16.0312 170.07 16.0625C170.039 16.4766 169.906 16.7188 169.672 16.7891C169.586 16.8125 169.488 16.8242 169.379 16.8242H168.594C168.195 16.8242 167.953 16.7422 167.867 16.5781C167.82 16.4609 167.797 16.293 167.797 16.0742V15.5234ZM169.824 18.5938L169.812 19.2148C169.328 19.2539 168.605 19.3125 167.645 19.3906C166.207 19.5156 165.211 19.5977 164.656 19.6367L164.609 18.957C165.547 18.9023 166.328 18.8516 166.953 18.8047V17.9844H165.137V17.3867H166.953V16.7188H167.773V17.3867H169.637V17.9844H167.773V18.7578L169.824 18.5938ZM174.441 20.3867L174.406 20.7852C174.25 22.2773 174.035 23.1875 173.762 23.5156C173.738 23.5469 173.715 23.5742 173.691 23.5977C173.48 23.7773 173.199 23.8789 172.848 23.9023C172.348 23.918 171.781 23.9102 171.148 23.8789C171.133 23.5742 171.047 23.3047 170.891 23.0703C171.43 23.1172 171.965 23.1406 172.496 23.1406C172.73 23.1328 172.887 23.1016 172.965 23.0469C173.168 22.8516 173.336 22.2031 173.469 21.1016H170.023C169.672 22.0078 169.027 22.6875 168.09 23.1406C167.355 23.4922 166.367 23.7578 165.125 23.9375C165.031 23.6641 164.895 23.418 164.715 23.1992C166.582 22.957 167.855 22.5078 168.535 21.8516C168.754 21.6328 168.934 21.3828 169.074 21.1016H165.383V20.3867H169.344C169.398 20.1602 169.445 19.918 169.484 19.6602H170.387C170.355 19.8711 170.305 20.1133 170.234 20.3867H174.441ZM172.449 14.3867H174.418C174.418 16.5898 174.469 17.9492 174.57 18.4648C174.648 18.832 174.762 19.0195 174.91 19.0273C175.035 19.0117 175.105 18.5117 175.121 17.5273C175.301 17.7305 175.477 17.8906 175.648 18.0078C175.602 18.875 175.488 19.4062 175.309 19.6016C175.191 19.7266 175.035 19.7891 174.84 19.7891C174.324 19.7891 173.98 19.3242 173.809 18.3945C173.699 17.7773 173.637 16.6836 173.621 15.1133H172.402C172.355 15.7461 172.273 16.3086 172.156 16.8008C172.719 17.1602 173.129 17.4648 173.387 17.7148L172.965 18.3828C172.699 18.1094 172.359 17.8242 171.945 17.5273C171.594 18.418 171.059 19.0938 170.34 19.5547C170.246 19.3594 170.094 19.1836 169.883 19.0273C169.859 19.0117 169.84 19 169.824 18.9922C170.512 18.5469 171 17.9102 171.289 17.082C170.773 16.7852 170.395 16.5781 170.152 16.4609L170.551 15.8984C170.801 16.0156 171.105 16.1758 171.465 16.3789C171.535 16.043 171.59 15.6211 171.629 15.1133H170.363V14.3867H171.676C171.684 13.9648 171.695 13.4883 171.711 12.957H172.496C172.48 13.6055 172.465 14.082 172.449 14.3867Z" fill="#A7A9AB"/>
</svg>
