<svg width="143" height="49" viewBox="0 0 143 49" fill="none" xmlns="http://www.w3.org/2000/svg">
<g clip-path="url(#clip0)">
<path opacity="0.3" fill-rule="evenodd" clip-rule="evenodd" d="M162.855 17.3809C162.855 17.8502 163.236 18.2307 163.705 18.2307H171.053C171.522 18.2307 171.902 18.6112 171.902 19.0805V36.4013C171.902 36.8706 171.522 37.2511 171.053 37.2511H146.168H110.985H92.2877H66.5537H40.8196H15.0856H-19.2478C-19.7172 37.2511 -20.0977 36.8706 -20.0977 36.4013V12.6318C-20.0977 12.1625 -19.7172 11.782 -19.2478 11.782H-14.9161C-14.4467 11.782 -14.0662 11.4015 -14.0662 10.9322V7.81156C-14.0662 7.34222 -13.6858 6.96175 -13.2164 6.96175H8.00332C8.47266 6.96175 8.85313 7.34222 8.85313 7.81156V10.9322C8.85313 11.4015 9.2336 11.782 9.70294 11.782H14.2358C14.7051 11.782 15.0856 12.1625 15.0856 12.6318V25.3929C15.0856 25.8622 15.4661 26.2427 15.9354 26.2427H22.2777C22.747 26.2427 23.1275 25.8622 23.1275 25.3929V22.4026C23.1275 21.9332 23.5079 21.5527 23.9773 21.5527H31.9279C32.3973 21.5527 32.7777 21.9332 32.7777 22.4026V25.3929C32.7777 25.8622 33.1582 26.2427 33.6275 26.2427H39.9698C40.4392 26.2427 40.8196 25.8622 40.8196 25.3929V18.4317C40.8196 18.3207 40.9096 18.2307 41.0207 18.2307C41.1317 18.2307 41.2217 18.1407 41.2217 18.0296V14.9116C41.2217 14.4423 41.6022 14.0618 42.0715 14.0618H48.0117C48.481 14.0618 48.8615 14.4423 48.8615 14.9116V17.3809C48.8615 17.8502 49.242 18.2307 49.7113 18.2307H65.7038C66.1732 18.2307 66.5537 18.6112 66.5537 19.0805V23.6342C66.5537 24.1035 66.9341 24.484 67.4035 24.484H75.5552C76.0245 24.484 76.405 24.1035 76.405 23.6342V23.3796C76.405 22.9103 76.7854 22.5298 77.2548 22.5298H81.5866C82.0559 22.5298 82.4364 22.9103 82.4364 23.3796V23.6342C82.4364 24.1035 82.8168 24.484 83.2862 24.484H91.4379C91.9072 24.484 92.2877 24.1035 92.2877 23.6342V6.83448C92.2877 6.36514 92.6682 5.98467 93.1375 5.98467H104.305C104.774 5.98467 105.155 5.6042 105.155 5.13486V3.90325C105.155 3.43392 105.535 3.05344 106.005 3.05344H106.516C106.986 3.05344 107.366 3.43392 107.366 3.90325V5.13486C107.366 5.6042 107.747 5.98467 108.216 5.98467H110.135C110.605 5.98467 110.985 6.36514 110.985 6.83448V10.9322C110.985 11.4015 111.366 11.782 111.835 11.782H116.569C117.038 11.782 117.419 11.4015 117.419 10.9322V7.81156C117.419 7.34222 117.799 6.96175 118.268 6.96175H121.997C122.466 6.96175 122.847 6.58127 122.847 6.11194V2.86104C122.847 2.3917 123.227 2.01123 123.697 2.01123H133.256C133.725 2.01123 134.105 2.3917 134.105 2.86104V6.11194C134.105 6.58128 134.486 6.96175 134.955 6.96175H138.684C139.153 6.96175 139.534 7.34222 139.534 7.81156V10.9322C139.534 11.4015 139.914 11.782 140.384 11.782H145.319C145.788 11.782 146.168 12.1625 146.168 12.6318V17.3809C146.168 17.8502 146.549 18.2307 147.018 18.2307H154.366C154.835 18.2307 155.215 17.8502 155.215 17.3809V14.9116C155.215 14.4423 155.596 14.0618 156.065 14.0618H162.005C162.475 14.0618 162.855 14.4423 162.855 14.9116V17.3809Z" fill="#A1C4FD"/>
<path opacity="0.4" d="M2.71862 16.375H11.1626V14.3647H2.71862V16.375Z" fill="white"/>
<path opacity="0.4" d="M2.71862 20.3115H11.1626V18.3012H2.71862V20.3115Z" fill="white"/>
<path opacity="0.4" d="M2.71862 24.248H11.1626V22.2378H2.71862V24.248Z" fill="white"/>
<path opacity="0.4" d="M2.71862 28.1851H11.1626V26.1748H2.71862V28.1851Z" fill="white"/>
<path opacity="0.4" d="M2.71862 32.1221H11.1626V30.1118H2.71862V32.1221Z" fill="white"/>
<path opacity="0.4" d="M37.9019 28.1851H18.1992V29.1902H37.9019V28.1851Z" fill="white"/>
<path opacity="0.4" d="M89.3696 25.6719H69.667V26.677H89.3696V25.6719Z" fill="white"/>
<path opacity="0.4" d="M89.3696 27.1802H69.667V28.1853H89.3696V27.1802Z" fill="white"/>
<path opacity="0.4" d="M89.3696 28.6875H69.667V29.6926H89.3696V28.6875Z" fill="white"/>
<path opacity="0.4" d="M37.9019 29.6924H18.1992V30.6975H37.9019V29.6924Z" fill="white"/>
<path opacity="0.4" d="M37.9019 31.2007H18.1992V32.2058H37.9019V31.2007Z" fill="white"/>
<path opacity="0.4" d="M37.9019 32.7085H18.1992V33.7137H37.9019V32.7085Z" fill="white"/>
<path opacity="0.4" d="M50.5674 19.4741H45.1392V22.4058H50.5674V19.4741Z" fill="white"/>
<path opacity="0.4" d="M57.0009 22.4058H62.4292V19.4741H57.0009V22.4058Z" fill="white"/>
<path opacity="0.4" d="M50.5674 24.165H45.1392V27.0967H50.5674V24.165Z" fill="white"/>
<path opacity="0.4" d="M57.0009 27.0967H62.4292V24.165H57.0009V27.0967Z" fill="white"/>
<path opacity="0.4" d="M50.5674 28.8555H45.1392V31.7871H50.5674V28.8555Z" fill="white"/>
<path opacity="0.4" d="M57.0009 31.7871H62.4292V28.8554H57.0009V31.7871Z" fill="white"/>
<path opacity="0.4" d="M99.6229 10.0928H92.3853V13.9458H99.6229V10.0928Z" fill="white"/>
<path opacity="0.4" d="M99.6229 15.6211H92.3853V19.4741H99.6229V15.6211Z" fill="white"/>
<path opacity="0.4" d="M99.6229 21.1494H92.3853V25.0025H99.6229V21.1494Z" fill="white"/>
<path opacity="0.4" d="M99.6229 26.6777H92.3853V30.5308H99.6229V26.6777Z" fill="white"/>
<path opacity="0.4" d="M142.245 13.9458H115.305V17.2125H142.245V13.9458Z" fill="white"/>
<path opacity="0.4" d="M142.346 20.9814H115.406V24.2482H142.346V20.9814Z" fill="white"/>
<path opacity="0.4" d="M142.446 28.0176H115.506V31.2843H142.446V28.0176Z" fill="white"/>
<path d="M59.9307 21.8354C59.7758 21.8823 59.6914 21.9083 59.6914 21.9083C59.7793 21.889 59.8599 21.8645 59.9307 21.8354Z" fill="url(#paint0_linear)"/>
<path d="M60.1172 21.9136C59.9624 21.9605 59.8779 21.9864 59.8779 21.9864C59.9658 21.9671 60.0464 21.9426 60.1172 21.9136Z" fill="url(#paint1_linear)"/>
<path d="M60.1172 21.8354C59.9624 21.8823 59.8779 21.9083 59.8779 21.9083C59.9658 21.889 60.0464 21.8645 60.1172 21.8354Z" fill="url(#paint2_linear)"/>
<g opacity="0.1">
<path opacity="0.1" d="M64.1264 20.4491C64.1264 20.4491 58.0749 24.0023 55.6825 27.5932C55.6825 27.5932 53.5735 29.121 53.8489 30.6873L50.0049 38.4429L57.0657 39.551C57.0657 39.551 56.6998 38.5961 58.0709 38.0609C59.442 37.5257 62.6548 32.1012 62.3813 31.2611C62.3813 31.2611 66.7823 26.6768 71.1832 24.881C75.5841 23.0851 77.7755 22.6713 78.4209 21.1209C78.4249 21.1209 68.069 19.0352 64.1264 20.4491Z" fill="black"/>
</g>
<g opacity="0.1">
<path opacity="0.1" d="M67.8515 19.9198C72.3971 19.9424 78.0586 21.0824 78.0586 21.0824C77.4113 22.6328 75.2219 23.0466 70.8209 24.8425C66.42 26.6383 62.0171 31.2218 62.0171 31.2218C62.2925 32.0594 59.0838 37.4872 57.7066 38.0216C56.5004 38.4873 56.633 39.2705 56.6833 39.4665L56.9728 39.5117C56.9728 39.5117 56.6069 38.5568 57.978 38.0216C59.3492 37.4863 62.568 32.0594 62.2925 31.2218C62.2925 31.2218 66.6934 26.6375 71.0944 24.8416C75.4953 23.0458 77.6867 22.632 78.3321 21.0816C78.3341 21.0866 72.4394 19.8963 67.8515 19.9198Z" fill="black"/>
</g>
<g opacity="0.1">
<path opacity="0.1" d="M69.5828 4.53727C69.4381 4.22903 69.5587 4.20222 69.7195 3.86718C70.3609 2.52698 61.8345 5.47206 61.8345 5.47206C61.8345 5.47206 62.309 5.71245 62.898 6.06593C63.3326 6.10326 63.7752 6.12207 64.2189 6.12205C66.551 6.12289 68.4308 5.30286 69.5828 4.53727Z" fill="black"/>
</g>
<g opacity="0.1">
<path opacity="0.1" d="M64.7209 4.61411C66.493 4.61411 67.9296 4.01558 67.9296 3.27727C67.9296 2.53895 66.493 1.94043 64.7209 1.94043C62.9488 1.94043 61.5122 2.53895 61.5122 3.27727C61.5122 4.01558 62.9488 4.61411 64.7209 4.61411Z" fill="black"/>
</g>
</g>
<defs>
<linearGradient id="paint0_linear" x1="183.834" y1="55.8136" x2="184.118" y2="55.8136" gradientUnits="userSpaceOnUse">
<stop stop-color="#808080" stop-opacity="0.25"/>
<stop offset="0.54" stop-color="#808080" stop-opacity="0.12"/>
<stop offset="1" stop-color="#808080" stop-opacity="0.1"/>
</linearGradient>
<linearGradient id="paint1_linear" x1="184.239" y1="55.9657" x2="184.526" y2="55.9657" gradientUnits="userSpaceOnUse">
<stop stop-color="#808080" stop-opacity="0.25"/>
<stop offset="0.54" stop-color="#808080" stop-opacity="0.12"/>
<stop offset="1" stop-color="#808080" stop-opacity="0.1"/>
</linearGradient>
<linearGradient id="paint2_linear" x1="184.239" y1="55.8136" x2="184.526" y2="55.8136" gradientUnits="userSpaceOnUse">
<stop stop-color="#808080" stop-opacity="0.25"/>
<stop offset="0.54" stop-color="#808080" stop-opacity="0.12"/>
<stop offset="1" stop-color="#808080" stop-opacity="0.1"/>
</linearGradient>
<clipPath id="clip0">
<rect width="192" height="57" fill="white" transform="translate(-20 -8)"/>
</clipPath>
</defs>
</svg>
