<svg width="111" height="24" viewBox="0 0 111 24" fill="none" xmlns="http://www.w3.org/2000/svg">
<path d="M17.37 6.372C17.524 6.284 17.656 6.196 17.788 6.064C17.876 5.91 17.92 5.778 17.92 5.668C17.92 5.58 17.81 5.47 17.634 5.36C17.458 5.294 17.326 5.25 17.194 5.25C17.018 5.294 16.82 5.382 16.6 5.47C15.94 5.69 15.302 5.888 14.642 6.064C14.51 5.514 14.378 4.942 14.246 4.326C14.158 4.04 14.048 3.798 13.96 3.6C13.85 3.512 13.718 3.446 13.542 3.424C13.388 3.446 13.256 3.49 13.146 3.534C12.97 3.666 12.904 3.842 12.904 4.04C13.102 4.832 13.3 5.624 13.52 6.372C13.102 6.46 12.706 6.548 12.31 6.636C11.078 6.922 9.934 7.054 8.878 7.054C8.724 7.054 8.592 7.054 8.504 7.032C8.218 7.186 8.042 7.362 7.998 7.538V7.758C7.998 8.066 8.13 8.242 8.438 8.286H8.922C9.428 8.286 9.934 8.242 10.462 8.176C11.606 8 12.706 7.736 13.806 7.428C14.73 10.97 15.566 13.874 16.292 16.14C15.478 17.46 14.576 18.714 13.608 19.902C13.52 19.99 13.498 20.078 13.498 20.188C13.498 20.32 13.586 20.408 13.762 20.408C13.828 20.408 13.916 20.386 14.026 20.364C14.378 20.144 14.818 19.748 15.324 19.22C15.742 18.736 16.204 18.12 16.71 17.35C17.15 18.67 17.568 19.704 17.942 20.474C18.162 20.98 18.36 21.332 18.558 21.552C18.734 21.772 18.976 21.904 19.284 21.904C19.79 21.882 20.164 21.2 20.406 19.858C20.494 19.154 20.56 18.406 20.604 17.526C20.604 16.646 20.56 16.03 20.516 15.678C20.428 15.458 20.318 15.326 20.186 15.326C19.944 15.348 19.812 15.458 19.812 15.634V16.184C19.812 17.152 19.768 18.098 19.68 18.978C19.57 19.814 19.482 20.342 19.394 20.584C18.976 19.748 18.602 18.846 18.25 17.79C18.03 17.196 17.81 16.58 17.59 15.942C18.14 15.018 18.756 13.918 19.438 12.642C19.79 11.96 19.988 11.388 20.076 10.948C20.098 10.86 20.12 10.75 20.12 10.662C20.098 10.486 20.01 10.354 19.834 10.244C19.746 10.244 19.68 10.222 19.592 10.222C19.416 10.222 19.284 10.288 19.196 10.42C18.58 11.916 17.92 13.324 17.172 14.688C16.336 12.312 15.588 9.782 14.928 7.142C15.808 6.922 16.622 6.658 17.37 6.372ZM9.978 14.842C11.034 14.314 11.804 14.05 12.266 14.05C12.42 14.072 12.508 14.204 12.508 14.468C12.486 14.71 12.354 15.084 12.134 15.612C11.87 16.228 11.518 16.954 11.056 17.768C10.946 17.9 10.858 18.098 10.77 18.318C10.682 18.406 10.638 18.494 10.638 18.604C10.638 18.912 10.748 19.044 10.946 19.088C11.078 19.088 11.188 19.044 11.276 19C11.408 18.912 11.54 18.78 11.672 18.604C12.31 17.878 12.794 17.13 13.124 16.382C13.498 15.59 13.696 14.842 13.696 14.138C13.696 13.764 13.586 13.434 13.366 13.148C13.146 12.972 12.904 12.862 12.596 12.862C12.464 12.862 12.354 12.884 12.266 12.884C11.76 12.972 11.276 13.126 10.792 13.324C10.528 13.412 10.264 13.522 10.022 13.632V13.5C10.022 12.268 9.868 11.234 9.582 10.442C9.45 10.178 9.318 10.024 9.186 10.024C8.988 10.024 8.812 10.09 8.636 10.178C8.46 10.266 8.372 10.354 8.372 10.486C8.372 10.574 8.416 10.728 8.504 10.948C8.812 11.982 8.966 13.104 8.966 14.336C8.966 16.316 8.372 18.296 7.206 20.232C7.118 20.408 7.074 20.518 7.074 20.584C7.162 20.804 7.316 20.936 7.558 20.958C7.712 20.958 7.844 20.892 7.932 20.782C8.57 20.166 9.098 19.154 9.494 17.746C9.736 16.91 9.89 15.942 9.978 14.842ZM15.654 0.761999C15.302 0.783998 15.082 0.959999 15.038 1.268C15.038 1.598 15.126 1.818 15.346 1.906C15.786 2.126 16.27 2.324 16.754 2.522C17.216 2.742 17.832 3.028 18.58 3.402C18.8 3.49 18.932 3.534 19.02 3.534H19.086C19.218 3.49 19.306 3.358 19.328 3.16C19.328 2.94 19.284 2.764 19.218 2.632C19.042 2.434 18.712 2.17 18.206 1.862C17.766 1.598 17.348 1.378 16.952 1.18C16.38 0.915999 15.94 0.761999 15.654 0.761999ZM6.326 7.472C5.688 7.912 4.962 8.264 4.17 8.572C4.06 7.692 3.884 6.9 3.642 6.24C3.51 5.932 3.334 5.778 3.114 5.778C2.96 5.778 2.828 5.822 2.696 5.888C2.52 6.02 2.432 6.196 2.432 6.372C2.432 6.46 2.454 6.614 2.542 6.834C2.652 7.274 2.762 7.736 2.894 8.242C2.938 8.484 2.982 8.726 3.026 8.99C2.894 9.034 2.762 9.056 2.608 9.1C1.904 9.276 1.244 9.408 0.672 9.474C0.408 9.518 0.298 9.694 0.298 9.958C0.298 10.134 0.386 10.31 0.518 10.486C0.65 10.618 0.804 10.662 1.024 10.662C1.596 10.618 2.212 10.508 2.872 10.31C2.96 10.288 3.07 10.244 3.202 10.2C3.246 10.64 3.268 11.036 3.268 11.388C3.268 12.004 3.246 12.752 3.246 13.676C3.158 14.16 3.092 14.534 3.048 14.842C2.828 14.974 2.608 15.084 2.388 15.172C1.816 15.392 1.156 15.656 0.364 16.008C0.166 16.118 0.056 16.25 0.056 16.426C0.056 16.668 0.1 16.844 0.188 16.954C0.276 17.13 0.408 17.196 0.54 17.196C0.584 17.196 0.672 17.174 0.782 17.13C1.992 16.734 3.246 16.14 4.566 15.326C5.666 14.622 6.612 13.918 7.36 13.214C7.448 13.082 7.492 12.95 7.514 12.818C7.514 12.752 7.492 12.708 7.492 12.664C7.404 12.576 7.316 12.51 7.184 12.488C7.118 12.488 7.052 12.51 7.008 12.554C6.854 12.62 6.48 12.884 5.908 13.324C5.358 13.654 4.764 13.984 4.148 14.292C4.192 14.006 4.214 13.632 4.258 13.192C4.302 12.444 4.346 11.674 4.346 10.86C4.346 10.596 4.324 10.222 4.302 9.76C5.38 9.32 6.194 8.836 6.766 8.352C6.898 8.242 6.986 8.088 6.986 7.912C6.964 7.846 6.942 7.758 6.898 7.67C6.81 7.538 6.678 7.472 6.502 7.472H6.326ZM35.68 15.92C35.988 15.92 36.406 15.744 36.89 15.392C37.638 14.798 38.386 13.984 39.134 12.972C39.508 12.378 39.838 11.718 40.102 10.992C40.322 10.42 40.454 9.826 40.498 9.232V8.748C40.476 8.594 40.41 8.462 40.322 8.352C40.19 8.264 40.058 8.22 39.882 8.198C39.354 8.198 38.936 8.22 38.628 8.22C38.1 8.242 37.594 8.286 37.066 8.352C36.296 8.44 35.482 8.55 34.646 8.726C34.228 8.814 33.81 8.902 33.414 9.012C33.414 7.516 33.436 6.482 33.436 5.866C33.788 5.756 34.118 5.646 34.47 5.514C36.186 5.008 37.66 4.458 38.936 3.842C39.112 3.776 39.244 3.666 39.376 3.534C39.442 3.402 39.486 3.27 39.486 3.182C39.486 3.072 39.398 2.962 39.222 2.852C39.046 2.764 38.892 2.72 38.76 2.72C38.54 2.808 38.276 2.94 37.968 3.116C35.79 4.04 33.788 4.722 31.94 5.206C30.202 5.69 28.596 5.91 27.1 5.91C26.946 5.91 26.836 5.91 26.748 5.888C26.484 6.02 26.352 6.196 26.308 6.372V6.57C26.308 6.856 26.44 7.01 26.704 7.054H27.342C28.046 7.032 28.75 6.966 29.454 6.834C30.422 6.658 31.368 6.438 32.336 6.174C32.336 7.23 32.358 8.242 32.358 9.254C32.072 9.342 31.808 9.408 31.544 9.474C30.312 9.914 29.344 10.31 28.684 10.684C28.508 10.816 28.42 10.97 28.42 11.146C28.42 11.52 28.618 11.696 29.036 11.696C29.212 11.608 29.388 11.498 29.586 11.41C29.96 11.212 30.334 11.036 30.686 10.882C31.236 10.684 31.786 10.508 32.358 10.332C32.358 12.18 32.402 14.094 32.49 16.052C32.512 17.812 32.534 19.506 32.556 21.178C32.534 21.75 32.358 22.322 32.028 22.872C32.028 23.224 32.204 23.4 32.556 23.4C32.776 23.4 32.952 23.29 33.084 23.114C33.37 22.564 33.524 21.86 33.524 21.024C33.524 19.924 33.48 18.648 33.436 17.13C33.392 15.48 33.392 14.116 33.392 13.016C33.392 11.96 33.392 10.97 33.414 10.046C35.262 9.584 37.176 9.298 39.178 9.21C39.288 9.21 39.376 9.232 39.464 9.232C38.848 10.728 38.298 11.872 37.836 12.664C37.352 13.478 36.89 14.094 36.45 14.49C36.142 14.842 35.856 15.018 35.636 15.018C35.482 15.018 35.262 14.908 34.976 14.688C34.536 14.292 34.228 14.094 34.096 14.094C33.92 14.116 33.81 14.226 33.766 14.424C33.766 14.622 33.81 14.754 33.92 14.842C34.184 15.238 34.492 15.546 34.888 15.722C35.13 15.854 35.394 15.92 35.68 15.92ZM28.772 16.426C28.376 15.326 28.134 14.094 28.068 12.752C28.024 11.894 28.024 11.058 28.024 10.266C28.024 9.936 27.892 9.76 27.628 9.738H27.496C27.188 9.804 27.012 9.958 26.968 10.2C26.968 10.75 26.968 11.3 26.99 11.85C27.034 13.346 27.232 14.644 27.562 15.744C27.694 16.162 27.826 16.492 27.958 16.756C28.046 16.976 28.2 17.086 28.398 17.086C28.442 17.086 28.508 17.086 28.574 17.064C28.728 16.976 28.816 16.822 28.816 16.602C28.816 16.536 28.794 16.47 28.772 16.426ZM30.246 1.796C31.61 2.676 32.644 3.094 33.392 3.094C34.096 3.094 34.492 2.918 34.558 2.544C34.558 2.412 34.426 2.302 34.184 2.258L30.422 0.761999C30.114 0.806 29.96 0.959999 29.938 1.224C29.938 1.554 30.026 1.752 30.246 1.796ZM66.156 21.376C66.156 21.002 66.002 20.782 65.694 20.738C65.43 20.738 65.254 20.826 65.144 21.024C63.56 20.298 62.46 18.56 61.866 15.766C61.602 14.534 61.47 13.126 61.47 11.564C61.47 10.332 61.47 8.99 61.514 7.56C61.558 5.558 61.602 4.26 61.602 3.688C61.558 2.5 61.03 1.884 59.974 1.862C59.666 1.862 59.116 1.994 58.324 2.214C57.092 2.522 55.31 3.05 52.978 3.754C51.988 4.084 51.394 4.304 51.196 4.436C50.998 4.568 50.888 4.7 50.888 4.854C50.888 5.25 51.042 5.492 51.372 5.536C55.376 4.172 58.126 3.314 59.578 2.962C60.194 3.094 60.524 3.38 60.524 3.82C60.524 4.524 60.502 5.778 60.458 7.626C60.414 9.188 60.392 10.552 60.392 11.718C60.392 12.972 60.458 14.116 60.634 15.128C61.074 17.922 61.976 19.968 63.384 21.288C64.044 21.882 64.682 22.19 65.276 22.234C65.782 22.234 66.068 21.948 66.156 21.376ZM46.312 19.704C46.224 19.836 46.202 19.924 46.202 20.012C46.202 20.232 46.334 20.364 46.554 20.364C46.73 20.364 46.884 20.276 47.038 20.122C47.39 19.792 47.72 19.396 48.05 18.934C49.106 17.218 49.634 14.666 49.634 11.322C49.634 10.574 49.59 9.738 49.524 8.836C49.392 7.516 49.238 6.636 49.062 6.218C48.974 6.02 48.798 5.91 48.534 5.91C48.138 5.954 47.962 6.152 47.962 6.504C48.182 7.45 48.358 8.33 48.446 9.122C48.512 10.002 48.556 10.816 48.556 11.564C48.556 12.95 48.512 13.896 48.468 14.424C48.226 16.536 47.5 18.296 46.312 19.704ZM57.092 14.204C56.74 14.336 56.278 14.512 55.706 14.732C55.64 14.754 55.596 14.776 55.552 14.776C55.552 14.556 55.574 14.292 55.574 14.006C55.574 13.346 55.552 12.664 55.53 11.916C56.586 11.498 57.356 11.278 57.884 11.278C58.016 11.278 58.104 11.322 58.104 11.41C58.104 11.564 57.928 12.07 57.62 12.928C57.444 13.39 57.268 13.808 57.092 14.204ZM55.464 10.838C55.354 9.848 55.244 9.122 55.134 8.638C55.552 8.484 55.97 8.308 56.388 8.132C57.114 7.824 57.664 7.538 58.016 7.274C58.148 7.098 58.214 6.9 58.214 6.724C58.192 6.614 58.126 6.526 58.016 6.46C57.884 6.394 57.774 6.35 57.642 6.35C57.466 6.35 57.158 6.46 56.762 6.68C55.442 7.34 53.88 7.956 52.054 8.55C51.79 8.594 51.614 8.66 51.482 8.748C51.328 8.858 51.24 8.99 51.24 9.144C51.24 9.452 51.372 9.672 51.636 9.804H51.768C52.01 9.782 52.23 9.716 52.406 9.628C52.978 9.452 53.572 9.232 54.188 9.012C54.32 9.804 54.43 10.53 54.496 11.212C54.342 11.278 54.166 11.366 53.968 11.454C53.22 11.762 52.604 12.092 52.12 12.488C52.098 12.444 52.076 12.4 52.076 12.356C51.922 12.004 51.768 11.696 51.592 11.432C51.482 11.344 51.372 11.3 51.262 11.278C50.998 11.278 50.8 11.388 50.69 11.586C50.646 11.674 50.624 11.74 50.624 11.806C50.624 11.872 50.624 11.938 50.668 12.026C51.46 14.138 52.142 15.898 52.736 17.306C52.846 17.438 52.978 17.482 53.11 17.482C53.198 17.482 53.264 17.46 53.308 17.416C53.44 17.372 53.506 17.284 53.528 17.152V16.976C53.88 16.822 54.232 16.646 54.584 16.47C54.474 17.834 54.188 19 53.748 19.99C53.528 20.078 53.242 20.21 52.934 20.364C52.736 20.452 52.626 20.584 52.604 20.782C52.604 21.002 52.648 21.2 52.758 21.332C52.846 21.464 52.978 21.53 53.11 21.53C53.154 21.53 53.22 21.508 53.308 21.486C54.144 21.2 55.002 20.76 55.904 20.188C56.476 19.792 56.982 19.374 57.444 18.978C57.752 19.88 58.126 20.54 58.566 20.958C58.698 21.178 58.874 21.288 59.094 21.288C59.358 21.266 59.49 21.112 59.512 20.826C59.512 20.716 59.446 20.562 59.358 20.364C59.116 19.924 58.918 19.396 58.764 18.824C58.61 18.472 58.478 18.12 58.39 17.768C58.236 17.284 58.126 16.888 58.038 16.602C57.972 16.36 57.818 16.228 57.598 16.228C57.202 16.25 56.982 16.426 56.982 16.778C56.982 16.976 56.982 17.152 57.004 17.306C57.026 17.548 57.07 17.768 57.136 17.988C57.004 18.076 56.85 18.208 56.63 18.384C56.102 18.736 55.53 19.088 54.87 19.44C55.178 18.56 55.398 17.416 55.486 16.008C56.542 15.524 57.444 15.062 58.214 14.666C58.346 14.578 58.412 14.512 58.412 14.424C58.412 14.314 58.368 14.204 58.302 14.116C58.258 14.05 58.214 14.006 58.148 13.962C58.368 13.61 58.566 13.214 58.786 12.774C59.006 12.246 59.138 11.696 59.138 11.168C59.138 10.948 59.05 10.728 58.874 10.53C58.72 10.398 58.544 10.332 58.346 10.31H58.06C57.62 10.31 57.092 10.376 56.476 10.508C56.146 10.596 55.816 10.706 55.464 10.838ZM52.494 13.478C53.198 13.038 53.88 12.664 54.584 12.334C54.606 12.994 54.628 13.632 54.628 14.226V15.194C54.1 15.48 53.682 15.744 53.33 15.964C53.22 15.59 53.066 15.128 52.89 14.578C52.78 14.226 52.648 13.874 52.494 13.478ZM72.784 14.996C72.916 14.424 73.004 13.808 73.004 13.148C72.982 12.686 72.916 12.224 72.784 11.784C72.52 11.146 72.146 10.816 71.618 10.816C71.398 10.816 71.09 10.926 70.672 11.124C70.386 11.3 70.078 11.52 69.77 11.762C69.638 11.894 69.572 12.048 69.572 12.202C69.572 12.356 69.616 12.466 69.704 12.554C69.748 12.642 69.836 12.664 69.924 12.664C70.1 12.664 70.298 12.554 70.562 12.334C70.87 12.114 71.09 12.004 71.178 12.004C71.684 12.004 71.948 12.488 71.948 13.456C71.882 13.896 71.618 14.798 71.156 16.118C70.98 16.558 70.914 16.866 70.914 17.064C70.914 17.152 70.936 17.24 71.024 17.306C71.156 17.438 71.288 17.526 71.464 17.57C71.596 17.57 71.684 17.526 71.772 17.438C73.818 15.15 75.754 13.192 77.58 11.564C77.624 13.368 77.646 15.26 77.646 17.196C77.646 18.34 77.668 19.418 77.668 20.452C77.184 19.924 76.722 19.55 76.326 19.33C76.062 19.33 75.93 19.506 75.93 19.814C75.952 19.968 76.018 20.122 76.106 20.298C76.634 21.266 77.272 21.772 78.042 21.772C78.372 21.772 78.548 21.53 78.57 21.068C78.57 19.572 78.592 16.294 78.592 11.19C78.592 11.014 78.592 10.838 78.592 10.662C78.944 10.376 79.318 10.09 79.67 9.782C80.924 8.77 82.09 7.934 83.146 7.23C83.124 7.89 83.124 8.528 83.124 9.1C83.124 10.112 83.212 10.97 83.388 11.718C83.564 12.532 83.894 13.214 84.334 13.742C84.642 14.182 84.972 14.556 85.346 14.886C85.698 15.326 85.896 15.678 85.896 15.964C85.896 16.228 85.786 16.536 85.588 16.844C85.324 17.372 84.708 18.186 83.74 19.308C83.608 19.44 83.542 19.528 83.542 19.594C83.542 19.858 83.63 19.99 83.85 20.012C83.938 20.012 84.048 19.968 84.18 19.902C84.356 19.814 84.576 19.594 84.84 19.264C85.478 18.604 86.072 17.812 86.644 16.888C86.842 16.536 86.952 16.184 86.952 15.876C86.952 15.458 86.82 15.062 86.556 14.688C86.336 14.38 86.028 13.984 85.676 13.544C85.28 13.016 84.95 12.554 84.708 12.114C84.356 11.454 84.18 10.442 84.18 9.078C84.18 8.198 84.202 7.34 84.246 6.526C84.246 6.306 84.18 6.13 84.092 5.954C83.96 5.734 83.806 5.602 83.674 5.602C83.542 5.646 83.432 5.734 83.344 5.866C81.672 6.944 80.088 8.132 78.592 9.43C78.57 7.472 78.526 5.822 78.46 4.48C78.394 4.018 78.328 3.6 78.262 3.226C78.13 2.874 77.954 2.698 77.69 2.676C77.294 2.676 77.096 2.874 77.052 3.226C77.052 3.424 77.074 3.71 77.118 4.084C77.272 5.052 77.36 5.998 77.404 6.966C77.448 8.044 77.492 9.166 77.536 10.332C77.47 10.376 77.404 10.442 77.36 10.486C76.128 11.542 74.918 12.686 73.73 13.918C73.422 14.27 73.114 14.644 72.784 14.996ZM98.4641 10.112C98.5741 9.98 98.6401 9.804 98.6401 9.628C98.6181 9.54 98.5521 9.452 98.4641 9.364C98.4201 9.364 98.3761 9.342 98.3321 9.298C98.3541 9.254 98.3761 9.232 98.4201 9.188C98.9041 8.484 99.1461 7.934 99.1461 7.516C99.1461 7.208 99.0141 6.922 98.7941 6.658C98.4861 6.35 98.0461 6.152 97.4521 6.042C97.0561 5.998 96.5721 5.954 96.0001 5.954C95.6041 5.954 95.1641 6.02 94.6801 6.152C94.2841 6.284 93.9541 6.394 93.6681 6.504C93.6241 5.91 93.5801 5.382 93.5361 4.92C93.6241 4.92 93.7121 4.898 93.8221 4.854C95.8901 4.194 97.3641 3.578 98.2661 2.962C98.4201 2.83 98.5081 2.676 98.5081 2.478C98.4861 2.39 98.4641 2.302 98.4201 2.214C98.3321 2.06 98.1781 1.972 98.0021 1.972C97.9141 1.972 97.8481 1.994 97.7821 1.994C96.5941 2.742 95.1861 3.314 93.6021 3.71C92.7881 3.908 92.0621 4.04 91.4021 4.106C91.1601 4.15 91.0501 4.304 91.0501 4.546C91.0501 4.7 91.1161 4.854 91.2481 4.986C91.3801 5.14 91.5341 5.206 91.7101 5.206C91.9521 5.206 92.2161 5.162 92.5021 5.096C92.5681 5.844 92.6341 6.702 92.7001 7.626C92.7441 8.946 92.7881 10.178 92.7881 11.322C92.7881 13.104 92.7001 14.71 92.5461 16.118C92.3701 17.482 92.1941 18.978 91.9961 20.584C91.9961 20.936 92.1281 21.112 92.4141 21.112C92.6561 21.112 92.8101 20.98 92.8981 20.716H92.9641C93.1841 20.672 93.4261 20.606 93.6461 20.518C95.0761 20.078 96.4621 19.572 97.7821 19.044C98.5301 18.736 99.1021 18.472 99.4541 18.208C99.5861 18.054 99.6521 17.878 99.6521 17.702C99.6301 17.614 99.5641 17.504 99.4541 17.416C99.3441 17.372 99.2341 17.35 99.1241 17.35C99.0141 17.35 98.8381 17.394 98.5741 17.482C98.6181 17.438 98.7061 17.372 98.7941 17.262C99.3441 16.514 99.6301 15.92 99.6301 15.458C99.6301 15.15 99.4981 14.82 99.2781 14.512C98.9701 14.204 98.5301 14.006 97.9361 13.874C97.5841 13.83 97.1221 13.786 96.5501 13.786C96.0661 13.786 95.5161 13.852 94.9221 13.962C94.4381 14.094 94.0421 14.226 93.7121 14.358C93.7341 13.72 93.7561 13.06 93.7781 12.356C93.8221 12.356 93.8661 12.334 93.9101 12.29C95.0321 11.85 96.1101 11.388 97.1661 10.904C97.7381 10.64 98.1781 10.376 98.4641 10.112ZM93.7121 7.626C94.0421 7.45 94.4161 7.318 94.8341 7.208C95.3621 7.032 95.8681 6.944 96.3961 6.944C97.4961 6.966 98.0461 7.208 98.0461 7.648C97.9361 8.176 97.4961 8.836 96.7261 9.584C96.3521 9.936 95.9341 10.266 95.4941 10.53C94.9661 10.772 94.3941 11.014 93.7781 11.234V11.19C93.7781 9.98 93.7561 8.792 93.7121 7.626ZM93.6461 15.568C94.0861 15.37 94.5701 15.194 95.1421 15.062C95.7361 14.886 96.3301 14.798 96.9461 14.798C98.0021 14.82 98.5301 15.084 98.5301 15.612C98.4201 16.162 97.9141 16.844 97.0121 17.68C96.5061 18.12 95.9341 18.538 95.2741 18.89C94.6581 19.11 93.9761 19.33 93.2721 19.55C93.2281 19.55 93.1621 19.572 93.1181 19.594C93.3381 18.406 93.5141 17.064 93.6461 15.568ZM107.22 16.162C107.44 16.162 107.726 15.964 108.078 15.568C108.628 14.908 109.156 14.006 109.684 12.862C109.97 12.202 110.212 11.454 110.41 10.662C110.564 10.002 110.652 9.364 110.696 8.726V8.176C110.674 8.022 110.608 7.89 110.52 7.758C110.366 7.67 110.19 7.626 109.992 7.604C109.64 7.604 109.354 7.626 109.134 7.626C108.782 7.648 108.43 7.67 108.078 7.714C107.55 7.78 107 7.868 106.428 8C106.208 8.044 105.966 8.11 105.746 8.154C105.746 7.978 105.768 7.78 105.768 7.56C105.79 6.108 105.812 5.03 105.812 4.37C105.944 4.348 106.076 4.304 106.252 4.26C107.484 3.93 108.584 3.578 109.53 3.182C109.706 3.116 109.838 3.006 109.948 2.874C110.036 2.72 110.08 2.61 110.08 2.522C110.08 2.412 109.992 2.302 109.816 2.192C109.64 2.104 109.486 2.06 109.354 2.06C109.178 2.104 108.98 2.192 108.782 2.302C107.198 2.896 105.746 3.336 104.426 3.6C103.172 3.93 102.006 4.084 100.928 4.084C100.818 4.084 100.708 4.084 100.62 4.062C100.378 4.194 100.224 4.37 100.18 4.546V4.744C100.18 5.03 100.312 5.184 100.576 5.228H101.06C101.566 5.228 102.072 5.162 102.6 5.074C103.304 4.986 104.03 4.832 104.734 4.634C104.69 5.954 104.69 7.23 104.69 8.44C104.558 8.484 104.426 8.506 104.294 8.55C103.436 8.88 102.776 9.188 102.314 9.452C102.138 9.584 102.072 9.716 102.072 9.892C102.072 10.266 102.27 10.442 102.688 10.442C102.776 10.376 102.886 10.31 103.018 10.244C103.26 10.09 103.502 9.958 103.766 9.848C104.074 9.738 104.382 9.628 104.69 9.496V14.952C104.668 19.374 104.558 22.168 104.382 23.312C104.382 23.488 104.58 23.576 104.998 23.576C105.13 23.554 105.24 23.466 105.284 23.312C105.372 22.894 105.438 22.388 105.482 21.772C105.614 20.188 105.68 18.318 105.702 16.118V11.74C105.702 10.86 105.702 10.002 105.724 9.166C106.846 8.858 108.034 8.682 109.31 8.616C109.42 8.616 109.508 8.638 109.596 8.638C109.2 10.354 108.848 11.652 108.562 12.554C108.254 13.478 107.946 14.182 107.682 14.666C107.484 15.062 107.308 15.26 107.176 15.26C107.088 15.26 106.978 15.172 106.802 14.996C106.538 14.688 106.384 14.534 106.296 14.534C106.12 14.556 106.01 14.666 105.966 14.864C105.966 15.084 106.01 15.238 106.12 15.326C106.274 15.634 106.472 15.854 106.736 16.008C106.868 16.118 107.044 16.162 107.22 16.162ZM101.544 15.04C101.456 13.984 101.412 12.84 101.412 11.586V9.232C101.412 8.924 101.28 8.748 101.016 8.726H100.862C100.576 8.792 100.4 8.946 100.356 9.166V10.728C100.378 12.158 100.444 13.39 100.576 14.424C100.62 14.82 100.686 15.128 100.73 15.37C100.818 15.568 100.972 15.678 101.192 15.678C101.236 15.678 101.28 15.678 101.346 15.656C101.5 15.59 101.588 15.458 101.588 15.238C101.588 15.15 101.566 15.084 101.544 15.04Z" fill="black"/>
</svg>
