<svg width="24" height="24" viewBox="0 0 24 24" fill="none" xmlns="http://www.w3.org/2000/svg">
<path d="M12 16.5H22.5V18H12V16.5Z" fill="black"/>
<path d="M6.75 15H3.75C3.33579 15 3 15.3358 3 15.75V18.75C3 19.1642 3.33579 19.5 3.75 19.5H6.75C7.16421 19.5 7.5 19.1642 7.5 18.75V15.75C7.5 15.3358 7.16421 15 6.75 15Z" fill="black"/>
<path d="M12 6H22.5V7.5H12V6Z" fill="black"/>
<path d="M7.12499 9.00023H3.37499C3.31104 9.00023 3.24815 8.98388 3.19231 8.95272C3.13646 8.92157 3.08951 8.87665 3.05592 8.82224C3.02232 8.76782 3.0032 8.70572 3.00037 8.64184C2.99754 8.57795 3.01109 8.5144 3.03974 8.45723L4.91474 4.69073C4.94929 4.6326 4.99836 4.58446 5.05713 4.55102C5.11591 4.51758 5.18237 4.5 5.24999 4.5C5.31761 4.5 5.38407 4.51758 5.44284 4.55102C5.50162 4.58446 5.55069 4.6326 5.58524 4.69073L7.46024 8.45798C7.48871 8.51513 7.50213 8.57859 7.49921 8.64237C7.49629 8.70615 7.47714 8.76813 7.44356 8.82243C7.40999 8.87674 7.36311 8.92157 7.30735 8.95269C7.2516 8.9838 7.18883 9.00017 7.12499 9.00023Z" fill="black"/>
</svg>
