<svg width="24" height="24" viewBox="0 0 24 24" fill="none" xmlns="http://www.w3.org/2000/svg">
<path d="M22 5.09346C21.1067 3.26013 18.5334 1.76013 15.54 2.63346C14.1097 3.04662 12.8617 3.93265 12 5.1468C11.1384 3.93265 9.89039 3.04662 8.46003 2.63346C5.46003 1.77346 2.89337 3.26013 2.00003 5.09346C0.7467 7.66013 1.2667 10.5468 3.5467 13.6735C5.33337 16.1201 7.8867 18.6001 11.5934 21.4801C11.7105 21.5715 11.8548 21.6211 12.0034 21.6211C12.1519 21.6211 12.2962 21.5715 12.4134 21.4801C16.1134 18.6068 18.6734 16.1468 20.46 13.6735C22.7334 10.5468 23.2534 7.66013 22 5.09346Z" fill="black"/>
</svg>
