<svg width="18" height="18" viewBox="0 0 18 18" fill="none" xmlns="http://www.w3.org/2000/svg">
<path d="M17.3333 3.24439C16.5889 1.71661 14.4445 0.466611 11.95 1.19439C10.758 1.53869 9.71807 2.27705 9.00001 3.28883C8.28194 2.27705 7.24197 1.53869 6.05001 1.19439C3.55001 0.477722 1.41112 1.71661 0.666674 3.24439C-0.37777 5.38328 0.0555632 7.78883 1.95556 10.3944C3.44445 12.4333 5.57223 14.4999 8.66112 16.8999C8.75874 16.9761 8.87899 17.0174 9.00278 17.0174C9.12658 17.0174 9.24683 16.9761 9.34445 16.8999C12.4278 14.5055 14.5611 12.4555 16.05 10.3944C17.9445 7.78883 18.3778 5.38328 17.3333 3.24439Z" fill="#6598FD"/>
</svg>
