<svg width="24" height="24" viewBox="0 0 24 24" fill="none" xmlns="http://www.w3.org/2000/svg">
<path d="M12 21.6201C11.8527 21.6197 11.7097 21.5704 11.5934 21.4801C7.8867 18.6001 5.33337 16.1201 3.5467 13.6735C1.2667 10.5468 0.7467 7.66013 2.00003 5.09346C2.89337 3.26013 5.46003 1.76013 8.46003 2.63346C9.89039 3.04662 11.1384 3.93265 12 5.1468C12.8617 3.93265 14.1097 3.04662 15.54 2.63346C18.5334 1.77346 21.1067 3.26013 22 5.09346C23.2534 7.66013 22.7334 10.5468 20.4534 13.6735C18.6667 16.1201 16.1134 18.6001 12.4067 21.4801C12.2903 21.5704 12.1473 21.6197 12 21.6201ZM6.75337 3.72013C6.03954 3.69235 5.33161 3.85949 4.7056 4.20363C4.07958 4.54776 3.5591 5.05589 3.20003 5.67346C2.1667 7.79346 2.63337 10.1535 4.6267 12.8801C6.74508 15.6125 9.22564 18.0437 12 20.1068C14.774 18.0458 17.2545 15.6168 19.3734 12.8868C21.3734 10.1535 21.8334 7.79346 20.8 5.68013C20.1334 4.3468 18.1334 3.28679 15.9067 3.91346C15.1927 4.12446 14.5308 4.48261 13.9636 4.96485C13.3964 5.44708 12.9365 6.04273 12.6134 6.71346C12.5631 6.83574 12.4777 6.94032 12.3679 7.01392C12.2581 7.08752 12.1289 7.12682 11.9967 7.12682C11.8645 7.12682 11.7353 7.08752 11.6255 7.01392C11.5157 6.94032 11.4303 6.83574 11.38 6.71346C11.0594 6.04106 10.6002 5.44401 10.0326 4.96147C9.46507 4.47894 8.80194 4.12179 8.0867 3.91346C7.65335 3.7876 7.20462 3.72253 6.75337 3.72013Z" fill="black"/>
</svg>
