<svg width="18" height="18" viewBox="0 0 18 18" fill="none" xmlns="http://www.w3.org/2000/svg">
<path d="M9.00001 17.0166C8.87726 17.0162 8.75809 16.9752 8.66112 16.8999C5.57223 14.4999 3.44445 12.4333 1.95556 10.3944C0.0555632 7.78883 -0.37777 5.38328 0.666674 3.24439C1.41112 1.71661 3.55001 0.466611 6.05001 1.19439C7.24197 1.53869 8.28194 2.27705 9.00001 3.28883C9.71807 2.27705 10.758 1.53869 11.95 1.19439C14.4445 0.477722 16.5889 1.71661 17.3333 3.24439C18.3778 5.38328 17.9445 7.78883 16.0445 10.3944C14.5556 12.4333 12.4278 14.4999 9.3389 16.8999C9.24192 16.9752 9.12276 17.0162 9.00001 17.0166ZM4.62779 2.09994C4.03293 2.07679 3.44299 2.21608 2.92131 2.50286C2.39963 2.78964 1.9659 3.21308 1.66667 3.72772C0.805563 5.49439 1.19445 7.46106 2.85556 9.73328C4.62088 12.0103 6.68801 14.0363 9.00001 15.7555C11.3116 14.038 13.3787 12.0139 15.1445 9.73883C16.8111 7.46106 17.1945 5.49439 16.3333 3.73328C15.7778 2.62217 14.1111 1.73883 12.2556 2.26106C11.6606 2.43689 11.109 2.73534 10.6363 3.13721C10.1637 3.53907 9.78038 4.03545 9.51112 4.59439C9.46926 4.69628 9.39806 4.78344 9.30656 4.84477C9.21506 4.9061 9.10739 4.93885 8.99723 4.93885C8.88707 4.93885 8.7794 4.9061 8.6879 4.84477C8.5964 4.78344 8.5252 4.69628 8.48334 4.59439C8.21611 4.03405 7.83347 3.53652 7.3605 3.1344C6.88754 2.73228 6.33493 2.43467 5.7389 2.26106C5.37777 2.15617 5.00383 2.10195 4.62779 2.09994Z" fill="#D2D4D6"/>
</svg>
