<svg width="22" height="20" viewBox="0 0 22 20" fill="none" xmlns="http://www.w3.org/2000/svg">
<path d="M21 3.09334C20.1067 1.26001 17.5334 -0.239994 14.54 0.63334C13.1097 1.0465 11.8617 1.93253 11 3.14667C10.1384 1.93253 8.89039 1.0465 7.46003 0.63334C4.46003 -0.22666 1.89337 1.26001 1.00003 3.09334C-0.2533 5.66001 0.2667 8.54667 2.5467 11.6733C4.33337 14.12 6.8867 16.6 10.5934 19.48C10.7105 19.5714 10.8548 19.621 11.0034 19.621C11.1519 19.621 11.2962 19.5714 11.4134 19.48C15.1134 16.6067 17.6734 14.1467 19.46 11.6733C21.7334 8.54667 22.2534 5.66001 21 3.09334Z" fill="#F2F7FF"/>
</svg>
