<svg width="24" height="24" viewBox="0 0 24 24" fill="none" xmlns="http://www.w3.org/2000/svg">
<path d="M19 21.9999H5C4.73478 21.9999 4.48043 21.8945 4.29289 21.707C4.10536 21.5194 4 21.2651 4 20.9999V11.3569C4.0154 11.1118 4.11956 10.8807 4.293 10.7069L11.293 3.70686C11.3859 3.61388 11.4962 3.54013 11.6176 3.4898C11.739 3.43948 11.8691 3.41357 12.0005 3.41357C12.1319 3.41357 12.262 3.43948 12.3834 3.4898C12.5048 3.54013 12.6151 3.61388 12.708 3.70686L19.708 10.7069C19.801 10.7996 19.8746 10.9098 19.9247 11.0311C19.9748 11.1525 20.0004 11.2826 20 11.4139V20.9999C20 21.2651 19.8946 21.5194 19.7071 21.707C19.5196 21.8945 19.2652 21.9999 19 21.9999ZM11.378 17.4749C11.598 17.6549 11.811 17.8309 12 17.9999C12.2 17.8229 12.424 17.6399 12.662 17.4459L12.719 17.3989C13.885 16.4479 15.337 15.2649 15.337 13.7989C15.3369 13.5594 15.2891 13.3224 15.1962 13.1017C15.1034 12.881 14.9675 12.681 14.7964 12.5135C14.6254 12.3459 14.4226 12.2142 14.2 12.126C13.9774 12.0378 13.7394 11.9949 13.5 11.9999C13.2171 11.9991 12.9372 12.0581 12.6787 12.1731C12.4202 12.288 12.1889 12.4563 12 12.6669C11.8111 12.4562 11.5798 12.2879 11.3213 12.173C11.0628 12.058 10.7829 11.999 10.5 11.9999C10.2607 11.9952 10.0229 12.0383 9.80042 12.1267C9.57797 12.2151 9.37539 12.3469 9.20452 12.5145C9.03365 12.6821 8.89793 12.8821 8.80529 13.1028C8.71265 13.3235 8.66495 13.5605 8.665 13.7999C8.665 15.2609 10.105 16.4359 11.265 17.3799H11.264H11.269L11.287 17.3949H11.292L11.3 17.4139L11.352 17.4569L11.365 17.4669H11.371L11.378 17.4749Z" fill="black"/>
</svg>
