<svg width="52" height="284" viewBox="0 0 52 284" fill="none" xmlns="http://www.w3.org/2000/svg">
<rect width="52" height="284" rx="12" fill="white"/>
<path d="M26 28.5H36.5V30H26V28.5Z" fill="#6598FD"/>
<path d="M20.75 27H17.75C17.3358 27 17 27.3358 17 27.75V30.75C17 31.1642 17.3358 31.5 17.75 31.5H20.75C21.1642 31.5 21.5 31.1642 21.5 30.75V27.75C21.5 27.3358 21.1642 27 20.75 27Z" fill="#6598FD"/>
<path d="M26 18H36.5V19.5H26V18Z" fill="#6598FD"/>
<path d="M21.125 21H17.375C17.311 21 17.2482 20.9836 17.1923 20.9525C17.1365 20.9213 17.0895 20.8764 17.0559 20.822C17.0223 20.7676 17.0032 20.7055 17.0004 20.6416C16.9975 20.5777 17.0111 20.5142 17.0397 20.457L18.9147 16.6905C18.9493 16.6324 18.9984 16.5842 19.0571 16.5508C19.1159 16.5173 19.1824 16.4998 19.25 16.4998C19.3176 16.4998 19.3841 16.5173 19.4428 16.5508C19.5016 16.5842 19.5507 16.6324 19.5852 16.6905L21.4602 20.4577C21.4887 20.5149 21.5021 20.5783 21.4992 20.6421C21.4963 20.7059 21.4771 20.7679 21.4436 20.8222C21.41 20.8765 21.3631 20.9213 21.3074 20.9524C21.2516 20.9836 21.1888 20.9999 21.125 21Z" fill="#6598FD"/>
<path d="M21.1569 267.99L26.0424 267.99L30.9404 267.99C30.9404 267.99 32.184 268.079 32.6757 267.724C33.1674 267.369 33.0445 266.707 32.6757 266.441L26.8888 262.266C26.3971 261.911 25.6029 261.911 25.1112 262.266L19.3243 266.441C18.9555 266.707 18.8326 267.369 19.3243 267.724C19.816 268.07 21.1569 267.99 21.1569 267.99Z" fill="#EBEDF0"/>
<rect x="32" y="122" width="18.0301" height="12" transform="rotate(90 32 122)" fill="#9AFA85"/>
<rect x="32" y="140.03" width="18.0301" height="12" transform="rotate(90 32 140.03)" fill="#EDFF85"/>
<rect x="32" y="158.06" width="18.0301" height="12" transform="rotate(90 32 158.06)" fill="#FEE77F"/>
<rect x="32" y="176.09" width="18.0301" height="12" transform="rotate(90 32 176.09)" fill="#FEC47E"/>
<rect x="32" y="194.12" width="18.0301" height="12" transform="rotate(90 32 194.12)" fill="#FFA67D"/>
<path d="M27.4766 103.926H24.5234V105.145H27.4766V103.926ZM28.2734 105.812H24.5234V106.41H23.7266V103.281H28.2734V105.812ZM30.7109 101.758V105.859C30.7109 106.281 30.5898 106.562 30.3477 106.703C30.3086 106.727 30.2695 106.746 30.2305 106.762C29.957 106.848 29.2852 106.891 28.2148 106.891C28.1523 106.57 28.0586 106.293 27.9336 106.059C28.793 106.082 29.3438 106.082 29.5859 106.059C29.7344 106.02 29.8164 105.945 29.832 105.836V102.508H22.2031V106.914H21.3594V101.758H30.7109ZM28.332 100.352V99.1797H23.6445V100.352H28.332ZM22.8008 98.5469H29.2109V100.996H22.8008V98.5469ZM26.3867 97.0938H31.168V97.8789H20.832V97.0938H25.4844V95.957H26.3867V97.0938Z" fill="black"/>
<path d="M23.1992 228.004L24.0312 228.262C23.6875 229.168 23.2773 230.031 22.8008 230.852V238.891H21.957V232.152C21.5742 232.691 21.168 233.184 20.7383 233.629C20.5508 233.23 20.3828 232.945 20.2344 232.773C21.25 231.781 22.1094 230.508 22.8125 228.953C22.9531 228.633 23.082 228.316 23.1992 228.004ZM23.9375 238.598V237.812H29.0234V238.598H23.9375ZM25.2617 232.141H27.8047C27.7109 231.273 27.6602 230.48 27.6523 229.762C26.9336 229.879 26.1367 229.988 25.2617 230.09V232.141ZM31.4727 232.949H28.7656C29.0391 234.988 29.4336 236.383 29.9492 237.133C30.1602 237.43 30.3672 237.578 30.5703 237.578C30.7891 237.578 30.9258 237.129 30.9805 236.23C30.9805 236.129 30.9844 236.027 30.9922 235.926C31.1875 236.137 31.418 236.293 31.6836 236.395C31.6055 237.41 31.418 238.039 31.1211 238.281C30.9648 238.398 30.7578 238.457 30.5 238.457C29.625 238.457 28.9258 237.527 28.4023 235.668C28.1914 234.887 28.0195 233.98 27.8867 232.949H25.2617V236.02C25.8477 235.926 26.7695 235.762 28.0273 235.527L28.0625 236.324C26.0469 236.715 24.6211 236.98 23.7852 237.121L23.5859 236.301L24.3945 236.16V229.176L24.9805 229.375C27.293 229.102 29.0352 228.762 30.207 228.355L30.9102 229.035C30.1836 229.254 29.3945 229.441 28.543 229.598C28.5508 230.434 28.5938 231.281 28.6719 232.141H31.4727V232.949Z" fill="black"/>
<path d="M21.9609 56.9219L21.832 56.8867C22.043 56.5117 22.2305 56.1094 22.3945 55.6797H19.4297C19.6875 56.0859 19.8594 56.4805 19.9453 56.8633L19.7227 56.9219H21.9609ZM21.9023 61.5039V60.4727H20.0039V61.5039H21.9023ZM18.6328 55.7969L19.043 55.6797H17.1445V54.9648H20.4609V53.957H21.3398V54.9648H24.8203V55.6797H22.9688L23.2852 55.7734C23.207 55.9219 22.9922 56.3047 22.6406 56.9219H24.3984V62.1953C24.3984 62.5703 24.3047 62.8203 24.1172 62.9453C24.0781 62.9688 24.0391 62.9883 24 63.0039C23.7578 63.0977 23.2539 63.1445 22.4883 63.1445C22.4492 62.918 22.3555 62.6602 22.207 62.3711C22.7617 62.3945 23.1523 62.3984 23.3789 62.3828C23.4883 62.3672 23.5469 62.3047 23.5547 62.1953V57.625H21.2812V58.4453H23.0742V59.0547H21.2812V59.9102H22.5586V62.0664H20.0039V62.5234H19.3594V59.9102H20.5898V59.0547H18.8086V58.4453H20.5898V57.625H18.3984V63.1562H17.5781V56.9219H19.125C19.0469 56.5938 18.8828 56.2188 18.6328 55.7969ZM17.1094 55.5508L16.4883 56.1484C16.1211 55.7031 15.5508 55.2461 14.7773 54.7773C14.6992 54.7383 14.6289 54.6992 14.5664 54.6602L15.1523 54.1094C15.9805 54.5625 16.6094 55.0195 17.0391 55.4805C17.0703 55.5039 17.0938 55.5273 17.1094 55.5508ZM16.7695 57.918L16.1484 58.5391C15.7656 58.1016 15.1523 57.6523 14.3086 57.1914C14.2461 57.1602 14.1875 57.1289 14.1328 57.0977L14.6953 56.5352C15.5703 56.9492 16.2344 57.3828 16.6875 57.8359C16.7188 57.8672 16.7461 57.8945 16.7695 57.918ZM16.4883 59.5117V62.5469C17.0586 63.3828 18.0703 63.832 19.5234 63.8945C21.1641 63.9492 22.875 63.9336 24.6562 63.8477C24.7891 63.8398 24.9062 63.832 25.0078 63.8242C24.8516 64.1289 24.7539 64.4102 24.7148 64.668C22.7773 64.7383 21.0508 64.7461 19.5352 64.6914C18.0898 64.6367 17.0117 64.2461 16.3008 63.5195C16.2305 63.4492 16.1641 63.375 16.1016 63.2969C15.6953 63.6953 15.1289 64.207 14.4023 64.832L13.957 63.9766C14.5742 63.5156 15.1328 63.0625 15.6328 62.6172V60.3438H14.0625V59.5117H16.4883ZM34.2656 60.9531H28.7578V63.625H34.2656V60.9531ZM27.8789 64.9258V60.1445H35.168V64.9258H34.2656V64.4336H28.7578V64.9258H27.8789ZM28.5 57.8594H34.5117V58.6445H28.5V57.8594ZM30.9727 53.9922H31.875C32.7578 55.2188 33.918 56.3125 35.3555 57.2734C35.9648 57.6797 36.5586 58.0156 37.1367 58.2812C36.9336 58.4766 36.7383 58.7305 36.5508 59.043C35.1523 58.3164 33.8711 57.3828 32.707 56.2422C32.207 55.7656 31.7969 55.3047 31.4766 54.8594C30.7734 55.9062 29.7461 56.9258 28.3945 57.918C27.7617 58.3789 27.1289 58.7773 26.4961 59.1133C26.3633 58.8711 26.1797 58.6367 25.9453 58.4102C27.3516 57.6992 28.6211 56.7422 29.7539 55.5391C30.2617 55 30.668 54.4844 30.9727 53.9922ZM23.3906 67.3164H19.6641V69.5547H23.3906V67.3164ZM24.2695 70.3398H18.832V66.543H24.2695V70.3398ZM17.6836 73.1641C17.6445 73.0703 17.5898 72.957 17.5195 72.8242C17.4492 72.6914 17.3711 72.5508 17.2852 72.4023C17.1992 72.2539 17.1094 72.1016 17.0156 71.9453C16.9297 71.7891 16.8438 71.6406 16.7578 71.5V76.9023H15.9023V71.5234C15.6836 72.1562 15.4336 72.7656 15.1523 73.3516C14.8789 73.9375 14.6016 74.4258 14.3203 74.8164C14.2812 74.6836 14.2148 74.5352 14.1211 74.3711C14.0273 74.207 13.9453 74.0664 13.875 73.9492C14.0391 73.7383 14.207 73.4883 14.3789 73.1992C14.5586 72.9023 14.7266 72.5898 14.8828 72.2617C15.0469 71.9336 15.1992 71.5938 15.3398 71.2422C15.4883 70.8828 15.6133 70.5352 15.7148 70.1992H14.0625V69.3555H15.9023V67.4336C15.6602 67.4883 15.418 67.5391 15.1758 67.5859C14.9336 67.625 14.6953 67.6641 14.4609 67.7031C14.4453 67.5938 14.4141 67.4727 14.3672 67.3398C14.3203 67.207 14.2695 67.0859 14.2148 66.9766C14.5117 66.9297 14.8164 66.8711 15.1289 66.8008C15.4414 66.7305 15.7461 66.6562 16.043 66.5781C16.3398 66.4922 16.6172 66.4023 16.875 66.3086C17.1406 66.2148 17.3711 66.1211 17.5664 66.0273L18.0938 66.7656C17.9062 66.8516 17.6992 66.9297 17.4727 67C17.2461 67.0703 17.0078 67.1445 16.7578 67.2227V69.3555H18.2812V70.1992H16.7578V70.5039C16.8281 70.5977 16.9336 70.7344 17.0742 70.9141C17.2148 71.0938 17.3594 71.2852 17.5078 71.4883C17.6641 71.6836 17.8047 71.8711 17.9297 72.0508C18.0625 72.2227 18.1523 72.3477 18.1992 72.4258L17.6836 73.1641ZM24.9258 75.8008V76.5977H18.0469V75.8008H21.1055V74.207H18.7148V73.4219H21.1055V71.9922C20.4258 72.0625 19.75 72.1211 19.0781 72.168C19.0625 72.0586 19.0312 71.9414 18.9844 71.8164C18.9375 71.6836 18.8906 71.5664 18.8438 71.4648C19.2578 71.4336 19.6875 71.3984 20.1328 71.3594C20.5781 71.3125 21.0117 71.2617 21.4336 71.207C21.8555 71.1445 22.2539 71.0781 22.6289 71.0078C23.0039 70.9375 23.3281 70.8633 23.6016 70.7852L24.1992 71.4414C23.8867 71.5273 23.543 71.6094 23.168 71.6875C22.8008 71.7656 22.4062 71.8281 21.9844 71.875V73.4219H24.4219V74.207H21.9844V75.8008H24.9258ZM36.7852 67.9609H27.832V70.5742C27.832 73.4258 27.4375 75.5469 26.6484 76.9375C26.4453 76.7422 26.2031 76.5742 25.9219 76.4336C26.6172 75.2383 26.9727 73.3867 26.9883 70.8789C26.9883 70.7773 26.9883 70.6758 26.9883 70.5742V67.1406H31.3945V65.9688H32.3086V67.1406H36.7852V67.9609ZM33.9023 70.0352H30.9961V71.3008H33.9023V70.0352ZM34.7695 72.0156H30.1406V70.0352H28.2305V69.3086H30.1406V68.2656H30.9961V69.3086H33.9023V68.2656H34.7695V69.3086H36.6914V70.0352H34.7695V72.0156ZM34.5703 73.5039H30.5977C31.043 74.0898 31.6914 74.5977 32.543 75.0273C33.4414 74.5977 34.1172 74.0898 34.5703 73.5039ZM35.3203 72.7305L35.8828 73.0352C35.3672 74.0039 34.5625 74.8008 33.4688 75.4258C34.4922 75.793 35.668 76.043 36.9961 76.1758C36.7852 76.3789 36.6133 76.6328 36.4805 76.9375C34.9336 76.7344 33.6172 76.3828 32.5312 75.8828C31.3203 76.3828 29.9141 76.7266 28.3125 76.9141C28.25 76.6875 28.125 76.4375 27.9375 76.1641C29.3672 76.0234 30.5977 75.7695 31.6289 75.4023C30.8633 74.9414 30.2344 74.3672 29.7422 73.6797L30.2227 73.5039H28.3828V72.7773H35.1562L35.3203 72.7305Z" fill="black"/>
</svg>
