<svg width="52" height="59" viewBox="0 0 52 59" fill="none" xmlns="http://www.w3.org/2000/svg">
<path d="M0 12C0 5.37258 5.37258 0 12 0H40C46.6274 0 52 5.37258 52 12V47C52 53.6274 46.6274 59 40 59H12C5.37258 59 0 53.6274 0 47V12Z" fill="white"/>
<path d="M26 28.5H36.5V30H26V28.5Z" fill="#D2D4D6"/>
<path d="M20.75 27H17.75C17.3358 27 17 27.3358 17 27.75V30.75C17 31.1642 17.3358 31.5 17.75 31.5H20.75C21.1642 31.5 21.5 31.1642 21.5 30.75V27.75C21.5 27.3358 21.1642 27 20.75 27Z" fill="#D2D4D6"/>
<path d="M26 18H36.5V19.5H26V18Z" fill="#D2D4D6"/>
<path d="M21.125 21H17.375C17.3111 21 17.2482 20.9836 17.1923 20.9525C17.1365 20.9213 17.0895 20.8764 17.0559 20.822C17.0223 20.7676 17.0032 20.7055 17.0004 20.6416C16.9976 20.5777 17.0111 20.5142 17.0398 20.457L18.9148 16.6905C18.9493 16.6324 18.9984 16.5842 19.0571 16.5508C19.1159 16.5173 19.1824 16.4998 19.25 16.4998C19.3176 16.4998 19.3841 16.5173 19.4429 16.5508C19.5016 16.5842 19.5507 16.6324 19.5853 16.6905L21.4603 20.4577C21.4887 20.5149 21.5021 20.5783 21.4992 20.6421C21.4963 20.7059 21.4772 20.7679 21.4436 20.8222C21.41 20.8765 21.3631 20.9213 21.3074 20.9524C21.2516 20.9836 21.1888 20.9999 21.125 21Z" fill="#D2D4D6"/>
<path d="M30.8431 44.0099L25.9576 44.0099L21.0596 44.0099C21.0596 44.0099 19.816 43.9212 19.3243 44.2759C18.8326 44.6307 18.9555 45.2935 19.3243 45.5586L25.1112 49.7339C25.6029 50.0887 26.3971 50.0887 26.8888 49.7339L32.6757 45.5586C33.0445 45.2935 33.1674 44.6307 32.6757 44.2759C32.184 43.9303 30.8431 44.0099 30.8431 44.0099Z" fill="#D2D4D6"/>
</svg>
