<svg width="24" height="24" viewBox="0 0 24 24" fill="none" xmlns="http://www.w3.org/2000/svg">
<path d="M21.7219 9.30723L12.4406 2.55723C12.3128 2.46357 12.1585 2.41309 12 2.41309C11.8415 2.41309 11.6872 2.46357 11.5594 2.55723L2.27811 9.30723C2.14994 9.40041 2.05459 9.5318 2.00575 9.68255C1.9569 9.8333 1.95707 9.99565 2.00624 10.1463L5.55233 21.0682C5.60128 21.2186 5.69656 21.3497 5.82453 21.4428C5.9525 21.5358 6.10662 21.586 6.26483 21.5861H17.7375C18.0633 21.5861 18.3492 21.3775 18.45 21.0682L21.9961 10.1463C22.0945 9.83691 21.9844 9.49941 21.7219 9.30723ZM19.6547 9.77363L17.3461 10.5236L12.6586 7.13223V4.68535L19.6547 9.77363ZM10.9219 13.2939L8.83358 16.1604L7.53983 12.1947L10.9219 13.2939ZM8.19608 11.0252L11.3437 8.74941V12.0494L8.19608 11.0252ZM12 14.0439L14.2008 17.065H9.79921L12 14.0439ZM12.6586 8.74941L15.8039 11.0252L12.6586 12.0471V8.74941ZM13.0781 13.2939L16.4601 12.1947L15.1664 16.1604L13.0781 13.2939ZM11.3437 4.68535V7.13223L6.6539 10.5236L4.3453 9.77363L11.3437 4.68535ZM3.96796 11.0346L5.9953 11.6932L7.87968 17.4682L6.61874 19.2002L3.96796 11.0346ZM7.6664 19.9924L8.8453 18.3752H15.157L16.3359 19.9924H7.6664ZM17.3812 19.2002L16.1203 17.4682L18.0047 11.6932L20.032 11.0346L17.3812 19.2002Z" fill="black"/>
</svg>
