<svg width="20" height="19" viewBox="0 0 20 19" fill="none" xmlns="http://www.w3.org/2000/svg">
<path d="M1 7.5L10 1M1 7.5L4.5 18M1 7.5L5 8.66667M10 1L19 7.5M10 1V5M19 7.5L15.5 18M19 7.5L15.5 8.66667M15.5 18H4.5M15.5 18L12.75 14.25M4.5 18L7.25 14.25M10 10.5V5M10 10.5L5 8.66667M10 10.5L7.25 14.25M10 10.5L12.75 14.25M10 10.5L15.5 8.66667M10 5L5 8.66667M10 5L15.5 8.66667M5 8.66667L7.25 14.25M7.25 14.25H12.75M12.75 14.25L15.5 8.66667" stroke="black" stroke-linecap="round" stroke-linejoin="round"/>
</svg>
