<svg width="21" height="21" viewBox="0 0 21 21" fill="none" xmlns="http://www.w3.org/2000/svg">
<path d="M20.2197 20.2198C20.5126 19.9269 20.5126 19.4521 20.2197 19.1593L15.086 14.0255C16.4471 12.3915 17.1258 10.2957 16.981 8.17395C16.8362 6.05225 15.8789 4.06807 14.3084 2.63416C12.7379 1.20026 10.6751 0.427031 8.54896 0.47534C6.42288 0.523649 4.39726 1.38977 2.8935 2.89353C1.38974 4.39729 0.523618 6.42291 0.47531 8.54899C0.427001 10.6751 1.20023 12.7379 2.63413 14.3085C4.06804 15.879 6.05222 16.8362 8.17392 16.981C10.2956 17.1259 12.3915 16.4471 14.0255 15.086L19.1592 20.2198C19.4521 20.5126 19.9269 20.5126 20.2197 20.2198ZM2 8.75003C2 7.415 2.39588 6.10996 3.13758 4.99993C3.87927 3.8899 4.93348 3.02473 6.16688 2.51384C7.40028 2.00295 8.75748 1.86927 10.0669 2.12973C11.3762 2.39018 12.579 3.03305 13.523 3.97706C14.467 4.92106 15.1098 6.12379 15.3703 7.43317C15.6307 8.74254 15.4971 10.0997 14.9862 11.3331C14.4753 12.5665 13.6101 13.6207 12.5001 14.3624C11.3901 15.1041 10.085 15.5 8.75 15.5C6.96039 15.498 5.24466 14.7862 3.97922 13.5208C2.71378 12.2554 2.00198 10.5396 2 8.75003Z" fill="#82AFF2"/>
</svg>
