<svg width="52" height="52" viewBox="0 0 52 52" fill="none" xmlns="http://www.w3.org/2000/svg">
<path d="M0 12C0 5.37258 5.37258 0 12 0H40C46.6274 0 52 5.37258 52 12V40C52 46.6274 46.6274 52 40 52H12C5.37258 52 0 46.6274 0 40V12Z" fill="white"/>
<path d="M26 30C28.2091 30 30 28.2091 30 26C30 23.7909 28.2091 22 26 22C23.7909 22 22 23.7909 22 26C22 28.2091 23.7909 30 26 30Z" fill="#D2D4D6"/>
<path d="M27 18.069V17C27 16.4477 26.5523 16 26 16C25.4477 16 25 16.4477 25 17V18.069C23.2403 18.2937 21.605 19.0962 20.3506 20.3506C19.0962 21.605 18.2937 23.2403 18.069 25H17C16.4477 25 16 25.4477 16 26C16 26.5523 16.4477 27 17 27H18.069C18.2934 28.7598 19.0957 30.3953 20.3502 31.6498C21.6047 32.9043 23.2402 33.7066 25 33.931V35C25 35.5523 25.4477 36 26 36C26.5523 36 27 35.5523 27 35V33.931C28.7599 33.7068 30.3955 32.9045 31.65 31.65C32.9045 30.3955 33.7068 28.7599 33.931 27H35C35.5523 27 36 26.5523 36 26C36 25.4477 35.5523 25 35 25H33.931C33.7066 23.2402 32.9043 21.6047 31.6498 20.3502C30.3953 19.0957 28.7598 18.2934 27 18.069ZM26 32C22.691 32 20 29.309 20 26C20 22.691 22.691 20 26 20C29.309 20 32 22.691 32 26C32 29.309 29.309 32 26 32Z" fill="#D2D4D6"/>
</svg>
