<svg width="52" height="52" viewBox="0 0 52 52" fill="none" xmlns="http://www.w3.org/2000/svg">
<path d="M0 12C0 5.37258 5.37258 0 12 0H40C46.6274 0 52 5.37258 52 12V40C52 46.6274 46.6274 52 40 52H12C5.37258 52 0 46.6274 0 40V12Z" fill="white"/>
<path d="M30.95 29.9499C31.9289 28.9709 32.5955 27.7236 32.8656 26.3658C33.1356 25.0079 32.9969 23.6005 32.4671 22.3215C31.9373 21.0424 31.04 19.9492 29.8889 19.1801C28.7378 18.411 27.3844 18.0004 26 18.0004C24.6156 18.0004 23.2622 18.411 22.1111 19.1801C20.96 19.9492 20.0628 21.0424 19.5329 22.3215C19.0031 23.6005 18.8644 25.0079 19.1345 26.3658C19.4045 27.7236 20.0711 28.9709 21.05 29.9499L25.2929 34.1928C25.6834 34.5833 26.3166 34.5833 26.7071 34.1928L30.95 29.9499ZM26.7071 37.0208C26.3166 37.4113 25.6834 37.4113 25.2929 37.0208L19.636 31.3639C18.3773 30.1052 17.5202 28.5016 17.1729 26.7558C16.8257 25.0099 17.0039 23.2004 17.6851 21.5558C18.3663 19.9113 19.5198 18.5057 20.9999 17.5168C22.4799 16.5278 24.22 16 26 16C27.78 16 29.5201 16.5278 31.0001 17.5168C32.4802 18.5057 33.6337 19.9113 34.3149 21.5558C34.9961 23.2004 35.1743 25.0099 34.8271 26.7558C34.4798 28.5016 33.6227 30.1052 32.364 31.3639L26.7071 37.0208ZM27 24.9999H30C30.5523 24.9999 31 25.4476 31 25.9999C31 26.5522 30.5523 26.9999 30 26.9999H25V20.9999C25 20.4476 25.4477 19.9999 26 19.9999C26.5523 19.9999 27 20.4476 27 20.9999V24.9999Z" fill="#D2D4D6"/>
</svg>
