<svg width="18" height="22" viewBox="0 0 18 22" fill="none" xmlns="http://www.w3.org/2000/svg">
<path d="M13.95 13.95C14.9289 12.971 15.5955 11.7237 15.8656 10.3659C16.1356 9.00801 15.9969 7.60058 15.4671 6.32154C14.9373 5.0425 14.04 3.94929 12.8889 3.18015C11.7378 2.41101 10.3844 2.00049 9 2.00049C7.61557 2.00049 6.26222 2.41101 5.11109 3.18015C3.95996 3.94929 3.06275 5.0425 2.53292 6.32154C2.00308 7.60058 1.86442 9.00801 2.13445 10.3659C2.40449 11.7237 3.07111 12.971 4.05 13.95L8.2929 18.1929C8.68342 18.5834 9.31659 18.5834 9.70711 18.1929L13.95 13.95ZM9.70711 21.0209C9.31659 21.4114 8.68342 21.4114 8.2929 21.0209L2.636 15.364C1.37734 14.1053 0.520187 12.5017 0.172928 10.7558C-0.17433 9.01001 0.00390685 7.20041 0.685099 5.55588C1.36629 3.91136 2.51984 2.50575 3.99988 1.51683C5.47992 0.527899 7.21998 6.10352e-05 9 6.10352e-05C10.78 6.10352e-05 12.5201 0.527899 14.0001 1.51683C15.4802 2.50575 16.6337 3.91136 17.3149 5.55588C17.9961 7.20041 18.1743 9.01001 17.8271 10.7558C17.4798 12.5017 16.6227 14.1053 15.364 15.364L9.70711 21.0209ZM10 8.99998H13C13.5523 8.99998 14 9.4477 14 9.99998C14 10.5523 13.5523 11 13 11H8V4.99998C8 4.4477 8.44772 3.99998 9 3.99998C9.55229 3.99998 10 4.4477 10 4.99998V8.99998Z" fill="#6598FD"/>
</svg>
