<svg width="24" height="24" viewBox="0 0 24 24" fill="none" xmlns="http://www.w3.org/2000/svg">
<path d="M16.95 15.9499C17.9289 14.9709 18.5955 13.7236 18.8656 12.3658C19.1356 11.0079 18.9969 9.60052 18.4671 8.32148C17.9373 7.04244 17.04 5.94923 15.8889 5.18009C14.7378 4.41095 13.3844 4.00043 12 4.00043C10.6156 4.00043 9.26222 4.41095 8.11109 5.18009C6.95996 5.94923 6.06275 7.04244 5.53292 8.32148C5.00308 9.60052 4.86442 11.0079 5.13445 12.3658C5.40449 13.7236 6.07111 14.9709 7.05 15.9499L11.2929 20.1928C11.6834 20.5833 12.3166 20.5833 12.7071 20.1928L16.95 15.9499ZM12.7071 23.0208C12.3166 23.4113 11.6834 23.4113 11.2929 23.0208L5.636 17.3639C4.37734 16.1052 3.52019 14.5016 3.17293 12.7558C2.82567 11.0099 3.00391 9.20035 3.6851 7.55582C4.36629 5.91129 5.51984 4.50569 6.99988 3.51677C8.47992 2.52784 10.22 2 12 2C13.78 2 15.5201 2.52784 17.0001 3.51677C18.4802 4.50569 19.6337 5.91129 20.3149 7.55582C20.9961 9.20035 21.1743 11.0099 20.8271 12.7558C20.4798 14.5016 19.6227 16.1052 18.364 17.3639L12.7071 23.0208ZM13 10.9999H16C16.5523 10.9999 17 11.4476 17 11.9999C17 12.5522 16.5523 12.9999 16 12.9999H11V6.99992C11 6.44764 11.4477 5.99992 12 5.99992C12.5523 5.99992 13 6.44764 13 6.99992V10.9999Z" fill="black"/>
</svg>
