<svg width="52" height="59" viewBox="0 0 52 59" fill="none" xmlns="http://www.w3.org/2000/svg">
<path d="M0 12C0 5.37258 5.37258 0 12 0H40C46.6274 0 52 5.37258 52 12V47C52 53.6274 46.6274 59 40 59H12C5.37258 59 0 53.6274 0 47V12Z" fill="white"/>
<path d="M30.95 27.9499C31.9289 26.9709 32.5955 25.7236 32.8656 24.3658C33.1356 23.0079 32.9969 21.6005 32.4671 20.3215C31.9373 19.0424 31.04 17.9492 29.8889 17.1801C28.7378 16.411 27.3844 16.0004 26 16.0004C24.6156 16.0004 23.2622 16.411 22.1111 17.1801C20.96 17.9492 20.0628 19.0424 19.5329 20.3215C19.0031 21.6005 18.8644 23.0079 19.1345 24.3658C19.4045 25.7236 20.0711 26.9709 21.05 27.9499L25.2929 32.1928C25.6834 32.5833 26.3166 32.5833 26.7071 32.1928L30.95 27.9499ZM26.7071 35.0208C26.3166 35.4113 25.6834 35.4113 25.2929 35.0208L19.636 29.3639C18.3773 28.1052 17.5202 26.5016 17.1729 24.7558C16.8257 23.0099 17.0039 21.2004 17.6851 19.5558C18.3663 17.9113 19.5198 16.5057 20.9999 15.5168C22.4799 14.5278 24.22 14 26 14C27.78 14 29.5201 14.5278 31.0001 15.5168C32.4802 16.5057 33.6337 17.9113 34.3149 19.5558C34.9961 21.2004 35.1743 23.0099 34.8271 24.7558C34.4798 26.5016 33.6227 28.1052 32.364 29.3639L26.7071 35.0208ZM27 22.9999H30C30.5523 22.9999 31 23.4476 31 23.9999C31 24.5522 30.5523 24.9999 30 24.9999H25V18.9999C25 18.4476 25.4477 17.9999 26 17.9999C26.5523 17.9999 27 18.4476 27 18.9999V22.9999Z" fill="#D2D4D6"/>
<path d="M30.8431 44.0099L25.9576 44.0099L21.0596 44.0099C21.0596 44.0099 19.816 43.9212 19.3243 44.2759C18.8326 44.6307 18.9555 45.2935 19.3243 45.5586L25.1112 49.7339C25.6029 50.0887 26.3971 50.0887 26.8888 49.7339L32.6757 45.5586C33.0445 45.2935 33.1674 44.6307 32.6757 44.2759C32.184 43.9303 30.8431 44.0099 30.8431 44.0099Z" fill="#D2D4D6"/>
</svg>
