<svg width="24" height="24" viewBox="0 0 24 24" fill="none" xmlns="http://www.w3.org/2000/svg">
<path d="M5.99998 4.79998C5.99998 4.48172 5.87355 4.17649 5.64851 3.95145C5.42346 3.7264 5.11824 3.59998 4.79998 3.59998C4.48172 3.59998 4.1765 3.7264 3.95145 3.95145C3.72641 4.17649 3.59998 4.48172 3.59998 4.79998V13.5216C3.23516 13.7322 2.93222 14.0352 2.72159 14.4C2.51097 14.7649 2.40009 15.1787 2.40009 15.6C2.40009 16.0212 2.51097 16.4351 2.72159 16.7999C2.93222 17.1648 3.23516 17.4677 3.59998 17.6784V19.2C3.59998 19.5182 3.72641 19.8235 3.95145 20.0485C4.1765 20.2735 4.48172 20.4 4.79998 20.4C5.11824 20.4 5.42346 20.2735 5.64851 20.0485C5.87355 19.8235 5.99998 19.5182 5.99998 19.2V17.6784C6.3648 17.4677 6.66774 17.1648 6.87837 16.7999C7.08899 16.4351 7.19987 16.0212 7.19987 15.6C7.19987 15.1787 7.08899 14.7649 6.87837 14.4C6.66774 14.0352 6.3648 13.7322 5.99998 13.5216V4.79998Z" fill="#A1C4FD"/>
<path d="M13.2 4.79998C13.2 4.48172 13.0736 4.17649 12.8485 3.95145C12.6235 3.7264 12.3183 3.59998 12 3.59998C11.6817 3.59998 11.3765 3.7264 11.1515 3.95145C10.9264 4.17649 10.8 4.48172 10.8 4.79998V6.32158C10.4352 6.53223 10.1322 6.83519 9.92161 7.20003C9.71098 7.56486 9.6001 7.97871 9.6001 8.39998C9.6001 8.82124 9.71098 9.23509 9.92161 9.59992C10.1322 9.96476 10.4352 10.2677 10.8 10.4784V19.2C10.8 19.5182 10.9264 19.8235 11.1515 20.0485C11.3765 20.2735 11.6817 20.4 12 20.4C12.3183 20.4 12.6235 20.2735 12.8485 20.0485C13.0736 19.8235 13.2 19.5182 13.2 19.2V10.4784C13.5648 10.2677 13.8678 9.96476 14.0784 9.59992C14.289 9.23509 14.3999 8.82124 14.3999 8.39998C14.3999 7.97871 14.289 7.56486 14.0784 7.20003C13.8678 6.83519 13.5648 6.53223 13.2 6.32158V4.79998Z" fill="#A1C4FD"/>
<path d="M19.2 3.59998C19.5183 3.59998 19.8235 3.7264 20.0485 3.95145C20.2736 4.17649 20.4 4.48172 20.4 4.79998V13.5216C20.7648 13.7322 21.0678 14.0352 21.2784 14.4C21.489 14.7649 21.5999 15.1787 21.5999 15.6C21.5999 16.0212 21.489 16.4351 21.2784 16.7999C21.0678 17.1648 20.7648 17.4677 20.4 17.6784V19.2C20.4 19.5182 20.2736 19.8235 20.0485 20.0485C19.8235 20.2735 19.5183 20.4 19.2 20.4C18.8817 20.4 18.5765 20.2735 18.3515 20.0485C18.1264 19.8235 18 19.5182 18 19.2V17.6784C17.6352 17.4677 17.3322 17.1648 17.1216 16.7999C16.911 16.4351 16.8001 16.0212 16.8001 15.6C16.8001 15.1787 16.911 14.7649 17.1216 14.4C17.3322 14.0352 17.6352 13.7322 18 13.5216V4.79998C18 4.48172 18.1264 4.17649 18.3515 3.95145C18.5765 3.7264 18.8817 3.59998 19.2 3.59998Z" fill="#A1C4FD"/>
</svg>
