<svg width="89" height="156" viewBox="0 0 89 156" fill="none" xmlns="http://www.w3.org/2000/svg">
<path d="M0 4.07843C0 1.82598 1.82598 0 4.07843 0H84.6065C86.8589 0 88.6849 1.82598 88.6849 4.07843V151.922C88.6849 154.174 86.859 156 84.6065 156H4.07843C1.82598 156 0 154.174 0 151.922V4.07843Z" fill="#FFF3F2"/>
<rect x="12.636" y="11.0856" width="64.3767" height="133.829" stroke="black" stroke-width="0.80137"/>
<path d="M13.2549 50.2192H76.296" stroke="#1E1E1E" stroke-width="0.80137"/>
<path d="M33.1357 23.602L33.2818 24.3116C33.1427 24.3742 32.1723 24.7637 30.3706 25.4803L30.1097 24.6977C30.2628 24.649 30.6802 24.5029 31.3619 24.2594V20.4821H30.235V19.7517H31.3619V17.2787H32.1027V19.7517H33.1149V20.4821H32.1027V23.9881L33.1357 23.602ZM38.8539 20.7117L39.5843 20.8265C39.2225 22.2316 38.7252 23.4316 38.0921 24.4264C38.3704 25.5046 38.6799 26.0472 39.0208 26.0541C39.2156 26.0541 39.3338 25.4768 39.3756 24.322C39.3756 24.3151 39.3756 24.3081 39.3756 24.3012C39.5356 24.482 39.7304 24.6177 39.9599 24.7081C39.8903 25.7098 39.7443 26.3359 39.5217 26.5863C39.3756 26.7324 39.1773 26.8054 38.9269 26.8054C38.3634 26.7915 37.9043 26.2559 37.5495 25.1985C37 25.8942 36.4052 26.4541 35.7652 26.8785C35.6331 26.6907 35.4626 26.5202 35.254 26.3672C35.2331 26.3533 35.2192 26.3428 35.2122 26.3359C36.0122 25.842 36.7113 25.1672 37.3095 24.3116C37.0452 23.1221 36.8748 21.5256 36.7983 19.5222H34.294V20.9517H36.3391C36.3391 20.9586 36.3357 21.0665 36.3287 21.2751C36.3009 23.209 36.2348 24.3394 36.1305 24.6664C36.1026 24.7359 36.0748 24.7916 36.047 24.8333C35.9218 25.0072 35.7409 25.1081 35.5044 25.1359C35.2818 25.1568 34.9618 25.1568 34.5444 25.1359C34.5096 24.8368 34.4505 24.6107 34.367 24.4577C34.6105 24.4785 34.8887 24.489 35.2018 24.489C35.334 24.482 35.4174 24.4472 35.4522 24.3846C35.5566 24.2455 35.6226 23.3342 35.6505 21.6508C35.6505 21.6438 35.6505 21.6369 35.6505 21.6299H34.294V22.0995C34.287 24.3185 33.8488 25.9359 32.9792 26.9515C32.8471 26.7776 32.6627 26.6176 32.4262 26.4715C32.4053 26.4646 32.3914 26.4576 32.3845 26.4507C33.1288 25.595 33.5218 24.2907 33.5636 22.5377C33.5636 22.3916 33.5636 22.2421 33.5636 22.089V18.7917H36.7774C36.7565 18.2561 36.7461 17.71 36.7461 17.1535H37.5078C37.5078 17.8978 37.5113 18.4439 37.5182 18.7917H38.9478C38.6417 18.3883 38.2382 17.9883 37.7374 17.5918C37.7304 17.5779 37.7235 17.5709 37.7165 17.5709L38.2487 17.2266C38.826 17.6579 39.2504 18.0578 39.5217 18.4265L38.9895 18.7917H39.7721V19.5222H37.5391C37.5878 20.8786 37.7026 22.1621 37.8834 23.3725C38.273 22.6421 38.5965 21.7551 38.8539 20.7117ZM57.6151 19.4074H53.2013V20.8473H56.6342V24.5933C56.6342 24.9759 56.5299 25.2263 56.3212 25.3446C56.2725 25.3655 56.2238 25.3863 56.1751 25.4072C55.8969 25.5046 55.2708 25.5533 54.2969 25.5533C54.2621 25.3516 54.1717 25.0907 54.0256 24.7707C54.5056 24.7846 55.0204 24.7916 55.5699 24.7916C55.723 24.7498 55.803 24.6838 55.8099 24.5933V21.6091H53.2013V26.9411H52.3874V21.6091H49.9457V25.595H49.1527V20.8473H52.3874V19.4074H48.0571V18.6248H52.377V17.1118H53.2117V18.6248H57.6151V19.4074ZM24.3864 39.1325H25.5968V37.5151H24.3864V39.1325ZM27.5168 37.5151H26.3064V39.1325H27.5168V37.5151ZM27.0994 40.2385L27.715 40.0299C28.2437 40.7046 28.6367 41.3933 28.8941 42.0959C28.9359 42.2002 28.9672 42.2941 28.988 42.3776L28.3307 42.6072C28.2681 42.3776 28.1602 42.1028 28.0072 41.7829C27.0611 41.8524 25.4473 41.9707 23.1656 42.1376L23.103 41.4072C23.3882 41.3933 23.8925 41.3655 24.616 41.3237C25.0473 41.3029 25.3742 41.2855 25.5968 41.2716V39.769H23.7499V36.8682H25.5968V35.9187C24.8525 35.9882 24.209 36.0334 23.6664 36.0543C23.6247 35.8665 23.5517 35.6717 23.4473 35.47C25.4507 35.3309 26.922 35.1326 27.8611 34.8752L28.4141 35.4491C27.802 35.6091 27.0994 35.7378 26.3064 35.8352V36.8682H28.195V39.769H26.3064V41.2298L27.6837 41.1463C27.5516 40.9098 27.3568 40.6072 27.0994 40.2385ZM22.383 33.7379H29.6663C29.6524 37.856 29.7498 40.4159 29.9584 41.4176C30.0558 41.8559 30.1741 42.0785 30.3132 42.0855C30.4245 42.0715 30.4941 41.5185 30.5219 40.4264C30.6749 40.6559 30.8384 40.8472 31.0123 41.0003C30.9636 41.9602 30.8349 42.5446 30.6263 42.7533C30.5219 42.8576 30.3897 42.9098 30.2297 42.9098C29.6732 42.9098 29.3045 42.1689 29.1237 40.6872C28.9985 39.7064 28.9254 37.7899 28.9046 34.9378C28.9046 34.6874 28.9046 34.5309 28.9046 34.4683H23.1343V37.1604C23.1273 39.769 22.6647 41.6924 21.7465 42.9306C21.6004 42.7776 21.3917 42.628 21.1204 42.482C21.9134 41.4316 22.3343 39.8351 22.383 37.6925C22.383 37.5256 22.383 37.3482 22.383 37.1604V33.7379ZM42.4172 35.8456L42.939 36.0439C42.5285 38.2003 41.7007 39.8977 40.4556 41.1359C40.1634 41.4211 39.8608 41.6715 39.5477 41.8872C39.4086 41.6785 39.2138 41.4768 38.9634 41.282C38.9495 41.2681 38.9356 41.2576 38.9217 41.2507C40.0695 40.5342 40.9425 39.4455 41.5407 37.9847C41.7077 37.5604 41.8468 37.1221 41.9581 36.6699H39.1721V35.8769H42.2503L42.4172 35.8456ZM47.7597 34.8856L48.4692 35.3969C47.4467 36.5169 46.4763 37.4386 45.558 38.1621C46.4623 39.7342 47.5754 40.8055 48.8971 41.3759C48.6397 41.5916 48.4414 41.8315 48.3023 42.0959C46.5841 41.2472 45.2589 39.616 44.3268 37.2021V41.7829C44.3268 42.242 44.1981 42.548 43.9407 42.7011C43.8989 42.722 43.8607 42.7393 43.8259 42.7533C43.5268 42.8646 42.8729 42.9202 41.8642 42.9202C41.8294 42.6837 41.7251 42.395 41.5512 42.0541C41.9059 42.0681 42.459 42.075 43.2103 42.075C43.3911 42.0263 43.4885 41.9289 43.5024 41.7829V33.1848H44.3268V35.1152C44.5702 36.0126 44.8693 36.8195 45.2241 37.536C46.2397 36.6456 47.0606 35.7934 47.6867 34.9796C47.7145 34.9448 47.7388 34.9135 47.7597 34.8856ZM59.8846 39.362H58.0273V41.1881H59.8846V39.362ZM59.7907 35.4387H58.0273V37.0143H59.7907V35.4387ZM58.0273 37.6821V38.6734H60.5941V41.8663H58.0273V42.5863H57.2968V34.7604H58.1942C58.3959 34.19 58.549 33.6544 58.6533 33.1535L59.509 33.2787C59.3629 33.7031 59.1681 34.197 58.9246 34.7604H60.4898V37.6821H58.0273ZM66.5835 34.437H64.1001V35.7517H66.2601V40.4785C66.2531 40.8472 66.1488 41.0803 65.947 41.1777C65.7523 41.2611 65.3592 41.3029 64.7679 41.3029C64.7471 41.129 64.674 40.8994 64.5488 40.6142C64.8062 40.6211 65.081 40.6246 65.3731 40.6246C65.4636 40.6107 65.5123 40.5585 65.5192 40.4681V36.4717H64.1001V42.8993H63.3593V36.4717H62.0445V41.3133H61.3141V35.7517H63.3593V34.437H60.9176V33.717H66.5835V34.437Z" fill="black"/>
<path d="M28.3881 57.1844H27.9707C27.6507 57.6923 27.3133 58.1305 26.9585 58.4992C26.7012 58.3044 26.4855 58.1618 26.3116 58.0714C26.9794 57.4662 27.5046 56.6523 27.8872 55.6297C27.8942 55.6088 27.9011 55.5914 27.9081 55.5775L28.6594 55.7654C28.6037 55.9323 28.4889 56.1932 28.315 56.5479H31.1219V57.1844H29.1602C29.355 57.5949 29.4837 57.9218 29.5463 58.1653L28.8681 58.4366C28.7985 58.1305 28.6385 57.7131 28.3881 57.1844ZM30.8819 60.9513H28.4924C28.4646 61.0696 28.4229 61.2435 28.3672 61.473C28.3116 61.6817 28.2733 61.8348 28.2524 61.9321H30.8819V60.9513ZM31.6541 59.1983V60.2731H34.3149V59.1983H31.6541ZM31.6541 61.9321H35.7131C35.7131 61.9391 35.7061 62.0469 35.6922 62.2556C35.567 63.5147 35.4035 64.2834 35.2018 64.5616C35.174 64.5964 35.1496 64.6242 35.1288 64.6451C34.9549 64.8051 34.7288 64.8921 34.4505 64.906C34.1444 64.9268 33.6958 64.9268 33.1045 64.906C33.0906 64.6069 33.021 64.3634 32.8958 64.1756C33.2436 64.2034 33.6471 64.2173 34.1062 64.2173C34.301 64.2103 34.4262 64.186 34.4818 64.1443C34.6349 63.9773 34.7601 63.4695 34.8575 62.6208H31.6541V65.3755H30.8819V62.8608C30.0541 63.6886 28.9863 64.3738 27.6785 64.9164C27.4211 65.0277 27.1707 65.1216 26.9272 65.1981C26.7742 64.9547 26.6073 64.746 26.4264 64.5721C27.6159 64.2382 28.7011 63.7199 29.682 63.0173C29.8628 62.8852 30.0298 62.753 30.1828 62.6208H28.075C28.0542 62.6765 28.0298 62.7565 28.002 62.8608C27.9881 62.9165 27.9777 62.9547 27.9707 62.9756L27.1985 62.8608C27.4698 61.9565 27.689 61.0939 27.8559 60.2731H30.8819V59.1983H27.3342V58.5201H35.0975V60.9513H31.6541V61.9321ZM32.4888 56.5479H36.0783V57.1844H33.6992C33.9984 57.581 34.2036 57.9149 34.3149 58.1862L33.6158 58.4575C33.4836 58.0818 33.2332 57.6575 32.8645 57.1844H32.1028C31.7689 57.6714 31.4002 58.0957 30.9967 58.4575C30.788 58.2696 30.5758 58.1166 30.3602 57.9983C31.0906 57.421 31.6402 56.6836 32.0088 55.7862C32.0436 55.7097 32.0715 55.6401 32.0923 55.5775L32.854 55.7654C32.7706 55.974 32.6488 56.2349 32.4888 56.5479ZM40.7947 63.5599H47.9006V57.3618H45.7198V60.4922C45.7267 60.6939 45.7546 60.8157 45.8033 60.8574C45.8728 60.8852 45.9737 60.8991 46.1059 60.8991H46.5963C46.7632 60.8991 46.8815 60.8887 46.9511 60.8678C47.0276 60.8261 47.0832 60.7357 47.118 60.5965C47.1389 60.4852 47.1563 60.1618 47.1702 59.6261C47.3371 59.7722 47.5423 59.88 47.7858 59.9496C47.758 60.5687 47.7163 60.9443 47.6606 61.0765C47.5771 61.2643 47.4554 61.393 47.2954 61.4626C47.1632 61.5252 46.9476 61.5565 46.6485 61.5565H45.9285C45.6154 61.5495 45.3789 61.4904 45.2189 61.3791C45.0728 61.2678 44.9894 61.0452 44.9685 60.7113C44.9615 60.6209 44.9581 60.5235 44.9581 60.4191V57.3618H43.5494C43.4729 58.8574 43.2538 59.9705 42.892 60.7009C42.5651 61.3548 42.0886 61.8661 41.4625 62.2347C41.3512 62.0261 41.1808 61.8278 40.9512 61.64C41.7651 61.1878 42.2973 60.4365 42.5477 59.3861C42.666 58.8714 42.7425 58.1966 42.7773 57.3618H40.7947V63.5599ZM39.9912 56.5897H48.7249V64.9895H47.9006V64.3008H40.7947V65.0729H39.9912V56.5897ZM59.3681 57.0697H58.5125C58.2342 57.4731 57.9803 57.7792 57.7508 57.9879C57.6116 57.8836 57.389 57.7583 57.083 57.6123C57.6673 57.1184 58.109 56.4436 58.4081 55.588L59.1803 55.7132C59.1316 55.894 59.0238 56.148 58.8568 56.4749H62.102V57.0697H60.2133C60.4498 57.3897 60.6029 57.6157 60.6724 57.7479L59.9733 57.9775C59.8342 57.6853 59.6325 57.3827 59.3681 57.0697ZM60.109 58.3322L60.6516 58.0192C61.1524 58.4505 61.5246 58.8505 61.768 59.2192L61.1837 59.5635C60.9402 59.174 60.582 58.7635 60.109 58.3322ZM54.8708 57.0697H54.3282C53.9596 57.5983 53.5978 58.0122 53.2431 58.3114C53.1735 58.2557 52.9509 58.1305 52.5753 57.9357C53.2778 57.3931 53.8239 56.6662 54.2135 55.7549C54.2413 55.6923 54.2656 55.6332 54.2865 55.5775L55.0587 55.734C54.9682 55.9567 54.85 56.2036 54.7039 56.4749H57.3125V57.0697H55.6639C55.8378 57.3757 55.9491 57.6192 55.9978 57.8001L55.2987 58.0192C55.236 57.7757 55.0934 57.4592 54.8708 57.0697ZM58.3873 64.1025L58.3768 64.4469C58.829 64.1269 59.2151 63.786 59.5351 63.4243C59.2429 62.5686 59.0342 61.5565 58.909 60.3878H56.8743V61.0243H58.3351V61.5043H56.8743V62.0782H58.2516V62.5686H56.8743V63.1321H58.3977V63.6225H56.8743V64.186L58.3873 64.1025ZM55.2047 60.3878V64.2799L56.2065 64.2277V60.3878H55.2047ZM56.3212 59.7826H57.9386C57.7647 59.5531 57.4969 59.2853 57.1351 58.9792C56.9264 59.2992 56.6551 59.567 56.3212 59.7826ZM61.0272 60.6487L61.6846 60.8157C61.3924 61.8243 60.9437 62.7217 60.3385 63.5078C60.6307 64.2173 60.9576 64.5756 61.3194 64.5825C61.4794 64.5825 61.5837 64.3982 61.6324 64.0295C61.6463 63.9043 61.6567 63.7617 61.6637 63.6017C61.8515 63.7686 62.0428 63.8834 62.2376 63.946C62.168 64.6277 62.0046 65.0451 61.7472 65.1981C61.622 65.2677 61.462 65.3025 61.2672 65.3025C60.6968 65.2886 60.2098 64.8886 59.8064 64.1025C59.3055 64.6103 58.7212 65.0555 58.0534 65.4381C57.9281 65.2503 57.7716 65.0799 57.5838 64.9268C57.7229 64.8573 57.876 64.7668 58.0429 64.6555C56.0673 64.7947 54.3178 64.9164 52.7944 65.0208L52.6796 64.4051C52.8535 64.3982 53.1457 64.3843 53.5561 64.3634C53.9874 64.3356 54.3178 64.3182 54.5474 64.3112V63.6538H52.9926V63.1634H54.5474V62.5686H53.2222V62.0782H54.5474V61.5043H53.1074V61.0243H54.5474V60.3878H52.6274V59.7826H53.3683C53.2361 59.6087 53.0935 59.4661 52.9405 59.3548C53.6987 58.9792 54.1613 58.4609 54.3282 57.8001L54.9543 57.8836C54.8778 58.1409 54.8187 58.3183 54.7769 58.4157C55.2221 58.7844 55.5317 59.0905 55.7056 59.334L55.2256 59.72C55.0517 59.4557 54.7978 59.1844 54.4639 58.9061C54.2204 59.2192 53.8761 59.5113 53.4309 59.7826H56.1543C55.9317 59.56 55.796 59.4348 55.7473 59.407C56.4151 59.0244 56.8221 58.5131 56.9682 57.8731L57.5942 57.9566C57.5386 58.1792 57.4829 58.3531 57.4273 58.4783C57.9142 58.8609 58.2516 59.1774 58.4394 59.4279L58.0012 59.7826H58.8568C58.8081 59.1357 58.7803 58.5235 58.7733 57.9462H59.5246C59.5246 58.6348 59.549 59.247 59.5977 59.7826H62.2063V60.3878H59.6498C59.7403 61.2226 59.8794 62.0121 60.0672 62.7565C60.5194 62.1026 60.8394 61.4 61.0272 60.6487Z" fill="black"/>
<path d="M43.6332 83.2167H44.9855V96.8066C44.9855 97.5412 44.7852 98.0198 44.3845 98.2424C44.3066 98.2869 44.2231 98.3259 44.1341 98.3593C43.6221 98.5262 42.5313 98.5986 40.8618 98.5763C40.7616 98.1534 40.5891 97.7137 40.3442 97.2574C41.5129 97.3019 42.4423 97.3075 43.1323 97.2741C43.4551 97.2296 43.6221 97.0737 43.6332 96.8066V83.2167ZM47.7235 87.5241L48.9256 87.0733C50.2501 89.1769 51.2462 91.2416 51.914 93.2672C52.0698 93.757 52.1923 94.2022 52.2813 94.6029L50.9457 95.1705C50.6007 93.501 49.8271 91.4975 48.6251 89.1602C48.3245 88.5703 48.024 88.0249 47.7235 87.5241ZM39.1756 87.1902L40.578 87.4406C39.8211 90.7908 38.7972 93.2728 37.5061 94.8867C37.1165 94.6084 36.7158 94.3858 36.304 94.2189C37.4949 92.8053 38.3965 90.7463 39.0086 88.0416C39.0643 87.7523 39.1199 87.4684 39.1756 87.1902ZM49.2929 120.85L48.2912 121.985C47.4564 120.961 46.2599 119.765 44.7017 118.396C43.3661 120.332 41.8746 121.98 40.2274 123.337C39.8156 122.981 39.426 122.692 39.0587 122.469C40.7394 121.2 42.2809 119.559 43.6833 117.544C42.3143 116.409 40.9007 115.352 39.4427 114.372L40.3275 113.404C41.5741 114.227 42.9431 115.229 44.4346 116.409C45.414 114.773 46.2265 113.12 46.8721 111.45L48.1743 111.801C47.4063 113.727 46.5048 115.535 45.4697 117.227C47.1726 118.641 48.447 119.848 49.2929 120.85ZM49.8939 112.369H51.1961V126.376H49.8939V125.107H38.5579V126.309H37.289V112.385H38.5579V123.872H49.8939V112.369Z" fill="black"/>
<line x1="13.2549" y1="71.1884" x2="76.296" y2="71.1883" stroke="black" stroke-width="0.80137"/>
<circle cx="44.4785" cy="90.8219" r="13.6233" stroke="black" stroke-width="0.534247"/>
<circle cx="44.4785" cy="119.671" r="13.6233" stroke="black" stroke-width="0.534247"/>
</svg>
