<svg width="89" height="156" viewBox="0 0 89 156" fill="none" xmlns="http://www.w3.org/2000/svg">
<path d="M0 4.07843C0 1.82598 1.82598 0 4.07843 0H84.6065C86.8589 0 88.6849 1.82598 88.6849 4.07843V151.922C88.6849 154.174 86.859 156 84.6065 156H4.07843C1.82598 156 0 154.174 0 151.922V4.07843Z" fill="#FFF3F2"/>
<rect x="12.636" y="11.0856" width="64.3767" height="133.829" stroke="black" stroke-width="0.80137"/>
<path d="M13.2549 50.2192H76.296" stroke="#1E1E1E" stroke-width="0.80137"/>
<path d="M33.1359 23.602L33.282 24.3116C33.1428 24.3742 32.1724 24.7637 30.3707 25.4803L30.1099 24.6977C30.2629 24.649 30.6803 24.5029 31.362 24.2594V20.4821H30.2351V19.7517H31.362V17.2787H32.1029V19.7517H33.115V20.4821H32.1029V23.9881L33.1359 23.602ZM38.854 20.7117L39.5844 20.8265C39.2227 22.2316 38.7253 23.4316 38.0923 24.4264C38.3705 25.5046 38.6801 26.0472 39.0209 26.0541C39.2157 26.0541 39.334 25.4768 39.3757 24.322C39.3757 24.3151 39.3757 24.3081 39.3757 24.3012C39.5357 24.482 39.7305 24.6177 39.96 24.7081C39.8905 25.7098 39.7444 26.3359 39.5218 26.5863C39.3757 26.7324 39.1774 26.8054 38.927 26.8054C38.3636 26.7915 37.9044 26.2559 37.5497 25.1985C37.0001 25.8942 36.4053 26.4541 35.7654 26.8785C35.6332 26.6907 35.4628 26.5202 35.2541 26.3672C35.2332 26.3533 35.2193 26.3428 35.2123 26.3359C36.0123 25.842 36.7114 25.1672 37.3097 24.3116C37.0453 23.1221 36.8749 21.5256 36.7984 19.5222H34.2941V20.9517H36.3393C36.3393 20.9586 36.3358 21.0665 36.3288 21.2751C36.301 23.209 36.2349 24.3394 36.1306 24.6664C36.1027 24.7359 36.0749 24.7916 36.0471 24.8333C35.9219 25.0072 35.741 25.1081 35.5045 25.1359C35.2819 25.1568 34.9619 25.1568 34.5445 25.1359C34.5097 24.8368 34.4506 24.6107 34.3671 24.4577C34.6106 24.4785 34.8889 24.489 35.2019 24.489C35.3341 24.482 35.4175 24.4472 35.4523 24.3846C35.5567 24.2455 35.6228 23.3342 35.6506 21.6508C35.6506 21.6438 35.6506 21.6369 35.6506 21.6299H34.2941V22.0995C34.2871 24.3185 33.8489 25.9359 32.9794 26.9515C32.8472 26.7776 32.6628 26.6176 32.4263 26.4715C32.4055 26.4646 32.3915 26.4576 32.3846 26.4507C33.1289 25.595 33.5219 24.2907 33.5637 22.5377C33.5637 22.3916 33.5637 22.2421 33.5637 22.089V18.7917H36.7775C36.7566 18.2561 36.7462 17.71 36.7462 17.1535H37.5079C37.5079 17.8978 37.5114 18.4439 37.5184 18.7917H38.9479C38.6418 18.3883 38.2383 17.9883 37.7375 17.5918C37.7305 17.5779 37.7236 17.5709 37.7166 17.5709L38.2488 17.2266C38.8262 17.6579 39.2505 18.0578 39.5218 18.4265L38.9896 18.7917H39.7722V19.5222H37.5392C37.5879 20.8786 37.7027 22.1621 37.8836 23.3725C38.2731 22.6421 38.5966 21.7551 38.854 20.7117ZM57.6152 19.4074H53.2014V20.8473H56.6344V24.5933C56.6344 24.9759 56.53 25.2263 56.3213 25.3446C56.2726 25.3655 56.2239 25.3863 56.1753 25.4072C55.897 25.5046 55.2709 25.5533 54.297 25.5533C54.2623 25.3516 54.1718 25.0907 54.0257 24.7707C54.5057 24.7846 55.0205 24.7916 55.57 24.7916C55.7231 24.7498 55.8031 24.6838 55.81 24.5933V21.6091H53.2014V26.9411H52.3875V21.6091H49.9459V25.595H49.1528V20.8473H52.3875V19.4074H48.0572V18.6248H52.3771V17.1118H53.2119V18.6248H57.6152V19.4074ZM24.3865 39.1325H25.5969V37.5151H24.3865V39.1325ZM27.5169 37.5151H26.3065V39.1325H27.5169V37.5151ZM27.0995 40.2385L27.7151 40.0299C28.2438 40.7046 28.6369 41.3933 28.8942 42.0959C28.936 42.2002 28.9673 42.2941 28.9882 42.3776L28.3308 42.6072C28.2682 42.3776 28.1604 42.1028 28.0073 41.7829C27.0613 41.8524 25.4474 41.9707 23.1657 42.1376L23.1031 41.4072C23.3883 41.3933 23.8926 41.3655 24.6161 41.3237C25.0474 41.3029 25.3743 41.2855 25.5969 41.2716V39.769H23.75V36.8682H25.5969V35.9187C24.8526 35.9882 24.2092 36.0334 23.6666 36.0543C23.6248 35.8665 23.5518 35.6717 23.4474 35.47C25.4509 35.3309 26.9221 35.1326 27.8612 34.8752L28.4143 35.4491C27.8021 35.6091 27.0995 35.7378 26.3065 35.8352V36.8682H28.1951V39.769H26.3065V41.2298L27.6838 41.1463C27.5517 40.9098 27.3569 40.6072 27.0995 40.2385ZM22.3831 33.7379H29.6664C29.6525 37.856 29.7499 40.4159 29.9586 41.4176C30.056 41.8559 30.1742 42.0785 30.3133 42.0855C30.4246 42.0715 30.4942 41.5185 30.522 40.4264C30.6751 40.6559 30.8385 40.8472 31.0124 41.0003C30.9638 41.9602 30.8351 42.5446 30.6264 42.7533C30.522 42.8576 30.3899 42.9098 30.2299 42.9098C29.6734 42.9098 29.3047 42.1689 29.1238 40.6872C28.9986 39.7064 28.9255 37.7899 28.9047 34.9378C28.9047 34.6874 28.9047 34.5309 28.9047 34.4683H23.1344V37.1604C23.1274 39.769 22.6648 41.6924 21.7466 42.9306C21.6005 42.7776 21.3918 42.628 21.1205 42.482C21.9136 41.4316 22.3344 39.8351 22.3831 37.6925C22.3831 37.5256 22.3831 37.3482 22.3831 37.1604V33.7379ZM42.4174 35.8456L42.9391 36.0439C42.5287 38.2003 41.7009 39.8977 40.4557 41.1359C40.1635 41.4211 39.8609 41.6715 39.5479 41.8872C39.4087 41.6785 39.214 41.4768 38.9635 41.282C38.9496 41.2681 38.9357 41.2576 38.9218 41.2507C40.0696 40.5342 40.9426 39.4455 41.5409 37.9847C41.7078 37.5604 41.8469 37.1221 41.9582 36.6699H39.1722V35.8769H42.2504L42.4174 35.8456ZM47.7598 34.8856L48.4694 35.3969C47.4468 36.5169 46.4764 37.4386 45.5581 38.1621C46.4625 39.7342 47.5755 40.8055 48.8972 41.3759C48.6398 41.5916 48.4415 41.8315 48.3024 42.0959C46.5842 41.2472 45.259 39.616 44.3269 37.2021V41.7829C44.3269 42.242 44.1982 42.548 43.9408 42.7011C43.8991 42.722 43.8608 42.7393 43.826 42.7533C43.5269 42.8646 42.873 42.9202 41.8643 42.9202C41.8295 42.6837 41.7252 42.395 41.5513 42.0541C41.9061 42.0681 42.4591 42.075 43.2104 42.075C43.3912 42.0263 43.4886 41.9289 43.5025 41.7829V33.1848H44.3269V35.1152C44.5703 36.0126 44.8695 36.8195 45.2242 37.536C46.2399 36.6456 47.0607 35.7934 47.6868 34.9796C47.7146 34.9448 47.739 34.9135 47.7598 34.8856ZM59.8847 39.362H58.0274V41.1881H59.8847V39.362ZM59.7908 35.4387H58.0274V37.0143H59.7908V35.4387ZM58.0274 37.6821V38.6734H60.5943V41.8663H58.0274V42.5863H57.297V34.7604H58.1943C58.3961 34.19 58.5491 33.6544 58.6534 33.1535L59.5091 33.2787C59.363 33.7031 59.1682 34.197 58.9247 34.7604H60.4899V37.6821H58.0274ZM66.5837 34.437H64.1003V35.7517H66.2602V40.4785C66.2532 40.8472 66.1489 41.0803 65.9472 41.1777C65.7524 41.2611 65.3594 41.3029 64.7681 41.3029C64.7472 41.129 64.6742 40.8994 64.5489 40.6142C64.8063 40.6211 65.0811 40.6246 65.3733 40.6246C65.4637 40.6107 65.5124 40.5585 65.5193 40.4681V36.4717H64.1003V42.8993H63.3594V36.4717H62.0447V41.3133H61.3142V35.7517H63.3594V34.437H60.9177V33.717H66.5837V34.437Z" fill="black"/>
<path d="M28.3881 57.1844H27.9707C27.6507 57.6923 27.3133 58.1305 26.9585 58.4992C26.7012 58.3044 26.4855 58.1618 26.3116 58.0714C26.9794 57.4662 27.5046 56.6523 27.8872 55.6297C27.8942 55.6088 27.9011 55.5914 27.9081 55.5775L28.6594 55.7654C28.6037 55.9323 28.4889 56.1932 28.315 56.5479H31.1219V57.1844H29.1602C29.355 57.5949 29.4837 57.9218 29.5463 58.1653L28.8681 58.4366C28.7985 58.1305 28.6385 57.7131 28.3881 57.1844ZM30.8819 60.9513H28.4924C28.4646 61.0696 28.4229 61.2435 28.3672 61.473C28.3116 61.6817 28.2733 61.8348 28.2524 61.9321H30.8819V60.9513ZM31.6541 59.1983V60.2731H34.3149V59.1983H31.6541ZM31.6541 61.9321H35.7131C35.7131 61.9391 35.7061 62.0469 35.6922 62.2556C35.567 63.5147 35.4035 64.2834 35.2018 64.5616C35.174 64.5964 35.1496 64.6242 35.1288 64.6451C34.9549 64.8051 34.7288 64.8921 34.4505 64.906C34.1444 64.9268 33.6958 64.9268 33.1045 64.906C33.0906 64.6069 33.021 64.3634 32.8958 64.1756C33.2436 64.2034 33.6471 64.2173 34.1062 64.2173C34.301 64.2103 34.4262 64.186 34.4818 64.1443C34.6349 63.9773 34.7601 63.4695 34.8575 62.6208H31.6541V65.3755H30.8819V62.8608C30.0541 63.6886 28.9863 64.3738 27.6785 64.9164C27.4211 65.0277 27.1707 65.1216 26.9272 65.1981C26.7742 64.9547 26.6073 64.746 26.4264 64.5721C27.6159 64.2382 28.7011 63.7199 29.682 63.0173C29.8628 62.8852 30.0298 62.753 30.1828 62.6208H28.075C28.0542 62.6765 28.0298 62.7565 28.002 62.8608C27.9881 62.9165 27.9777 62.9547 27.9707 62.9756L27.1985 62.8608C27.4698 61.9565 27.689 61.0939 27.8559 60.2731H30.8819V59.1983H27.3342V58.5201H35.0975V60.9513H31.6541V61.9321ZM32.4888 56.5479H36.0783V57.1844H33.6992C33.9984 57.581 34.2036 57.9149 34.3149 58.1862L33.6158 58.4575C33.4836 58.0818 33.2332 57.6575 32.8645 57.1844H32.1028C31.7689 57.6714 31.4002 58.0957 30.9967 58.4575C30.788 58.2696 30.5758 58.1166 30.3602 57.9983C31.0906 57.421 31.6402 56.6836 32.0088 55.7862C32.0436 55.7097 32.0715 55.6401 32.0923 55.5775L32.854 55.7654C32.7706 55.974 32.6488 56.2349 32.4888 56.5479ZM40.5338 57.1531H48.1615V57.9983H40.5338V57.1531ZM39.6365 63.4556H49.0588V64.3112H39.6365V63.4556ZM59.3681 57.0697H58.5125C58.2342 57.4731 57.9803 57.7792 57.7508 57.9879C57.6116 57.8836 57.389 57.7583 57.083 57.6123C57.6673 57.1184 58.109 56.4436 58.4081 55.588L59.1803 55.7132C59.1316 55.894 59.0238 56.148 58.8568 56.4749H62.102V57.0697H60.2133C60.4498 57.3897 60.6029 57.6157 60.6724 57.7479L59.9733 57.9775C59.8342 57.6853 59.6325 57.3827 59.3681 57.0697ZM60.109 58.3322L60.6516 58.0192C61.1524 58.4505 61.5246 58.8505 61.768 59.2192L61.1837 59.5635C60.9402 59.174 60.582 58.7635 60.109 58.3322ZM54.8708 57.0697H54.3282C53.9596 57.5983 53.5978 58.0122 53.2431 58.3114C53.1735 58.2557 52.9509 58.1305 52.5753 57.9357C53.2778 57.3931 53.8239 56.6662 54.2135 55.7549C54.2413 55.6923 54.2656 55.6332 54.2865 55.5775L55.0587 55.734C54.9682 55.9567 54.85 56.2036 54.7039 56.4749H57.3125V57.0697H55.6639C55.8378 57.3757 55.9491 57.6192 55.9978 57.8001L55.2987 58.0192C55.236 57.7757 55.0934 57.4592 54.8708 57.0697ZM58.3873 64.1025L58.3768 64.4469C58.829 64.1269 59.2151 63.786 59.5351 63.4243C59.2429 62.5686 59.0342 61.5565 58.909 60.3878H56.8743V61.0243H58.3351V61.5043H56.8743V62.0782H58.2516V62.5686H56.8743V63.1321H58.3977V63.6225H56.8743V64.186L58.3873 64.1025ZM55.2047 60.3878V64.2799L56.2065 64.2277V60.3878H55.2047ZM56.3212 59.7826H57.9386C57.7647 59.5531 57.4969 59.2853 57.1351 58.9792C56.9264 59.2992 56.6551 59.567 56.3212 59.7826ZM61.0272 60.6487L61.6846 60.8157C61.3924 61.8243 60.9437 62.7217 60.3385 63.5078C60.6307 64.2173 60.9576 64.5756 61.3194 64.5825C61.4794 64.5825 61.5837 64.3982 61.6324 64.0295C61.6463 63.9043 61.6567 63.7617 61.6637 63.6017C61.8515 63.7686 62.0428 63.8834 62.2376 63.946C62.168 64.6277 62.0046 65.0451 61.7472 65.1981C61.622 65.2677 61.462 65.3025 61.2672 65.3025C60.6968 65.2886 60.2098 64.8886 59.8064 64.1025C59.3055 64.6103 58.7212 65.0555 58.0534 65.4381C57.9281 65.2503 57.7716 65.0799 57.5838 64.9268C57.7229 64.8573 57.876 64.7668 58.0429 64.6555C56.0673 64.7947 54.3178 64.9164 52.7944 65.0208L52.6796 64.4051C52.8535 64.3982 53.1457 64.3843 53.5561 64.3634C53.9874 64.3356 54.3178 64.3182 54.5474 64.3112V63.6538H52.9926V63.1634H54.5474V62.5686H53.2222V62.0782H54.5474V61.5043H53.1074V61.0243H54.5474V60.3878H52.6274V59.7826H53.3683C53.2361 59.6087 53.0935 59.4661 52.9405 59.3548C53.6987 58.9792 54.1613 58.4609 54.3282 57.8001L54.9543 57.8836C54.8778 58.1409 54.8187 58.3183 54.7769 58.4157C55.2221 58.7844 55.5317 59.0905 55.7056 59.334L55.2256 59.72C55.0517 59.4557 54.7978 59.1844 54.4639 58.9061C54.2204 59.2192 53.8761 59.5113 53.4309 59.7826H56.1543C55.9317 59.56 55.796 59.4348 55.7473 59.407C56.4151 59.0244 56.8221 58.5131 56.9682 57.8731L57.5942 57.9566C57.5386 58.1792 57.4829 58.3531 57.4273 58.4783C57.9142 58.8609 58.2516 59.1774 58.4394 59.4279L58.0012 59.7826H58.8568C58.8081 59.1357 58.7803 58.5235 58.7733 57.9462H59.5246C59.5246 58.6348 59.549 59.247 59.5977 59.7826H62.2063V60.3878H59.6498C59.7403 61.2226 59.8794 62.0121 60.0672 62.7565C60.5194 62.1026 60.8394 61.4 61.0272 60.6487Z" fill="black"/>
<path d="M43.6332 83.2167H44.9855V96.8066C44.9855 97.5412 44.7852 98.0198 44.3845 98.2424C44.3066 98.2869 44.2231 98.3259 44.1341 98.3593C43.6221 98.5262 42.5313 98.5986 40.8618 98.5763C40.7616 98.1534 40.5891 97.7137 40.3442 97.2574C41.5129 97.3019 42.4423 97.3075 43.1323 97.2741C43.4551 97.2296 43.6221 97.0737 43.6332 96.8066V83.2167ZM47.7235 87.5241L48.9256 87.0733C50.2501 89.1769 51.2462 91.2416 51.914 93.2672C52.0698 93.757 52.1923 94.2022 52.2813 94.6029L50.9457 95.1705C50.6007 93.501 49.8271 91.4975 48.6251 89.1602C48.3245 88.5703 48.024 88.0249 47.7235 87.5241ZM39.1756 87.1902L40.578 87.4406C39.8211 90.7908 38.7972 93.2728 37.5061 94.8867C37.1165 94.6084 36.7158 94.3858 36.304 94.2189C37.4949 92.8053 38.3965 90.7463 39.0086 88.0416C39.0643 87.7523 39.1199 87.4684 39.1756 87.1902ZM48.4748 121.367H40.0938V124.74H48.4748V121.367ZM38.8083 126.743V120.199H49.8271V126.743H48.4748V125.925H40.0938V126.743H38.8083ZM51.6135 114.556H44.8519V117.06H50.762V118.279H37.8734V117.06H43.5497V114.556H36.8216V113.354H43.5497V110.966H44.8519V113.354H51.6135V114.556Z" fill="black"/>
<line x1="13.2549" y1="71.1884" x2="76.296" y2="71.1883" stroke="black" stroke-width="0.80137"/>
<circle cx="44.4787" cy="90.8219" r="13.6233" stroke="black" stroke-width="0.534247"/>
<circle cx="44.4787" cy="119.671" r="13.6233" stroke="black" stroke-width="0.534247"/>
</svg>
