<svg width="89" height="156" viewBox="0 0 89 156" fill="none" xmlns="http://www.w3.org/2000/svg">
<rect width="88.6849" height="156" rx="4.07843" fill="#FFF3F2"/>
<rect x="12.4007" y="11.4007" width="64.3767" height="133.829" stroke="black" stroke-width="0.80137"/>
<path d="M13 50.2192H76.0411" stroke="#1E1E1E" stroke-width="0.80137"/>
<path d="M32.7437 23.602L32.8897 24.3116C32.7506 24.3742 31.7802 24.7637 29.9785 25.4803L29.7177 24.6977C29.8707 24.649 30.2881 24.5029 30.9698 24.2594V20.4821H29.8429V19.7517H30.9698V17.2787H31.7106V19.7517H32.7228V20.4821H31.7106V23.9881L32.7437 23.602ZM38.4618 20.7117L39.1922 20.8265C38.8305 22.2316 38.3331 23.4316 37.7 24.4264C37.9783 25.5046 38.2879 26.0472 38.6287 26.0541C38.8235 26.0541 38.9418 25.4768 38.9835 24.322C38.9835 24.3151 38.9835 24.3081 38.9835 24.3012C39.1435 24.482 39.3383 24.6177 39.5678 24.7081C39.4983 25.7098 39.3522 26.3359 39.1296 26.5863C38.9835 26.7324 38.7852 26.8054 38.5348 26.8054C37.9713 26.7915 37.5122 26.2559 37.1575 25.1985C36.6079 25.8942 36.0131 26.4541 35.3732 26.8785C35.241 26.6907 35.0706 26.5202 34.8619 26.3672C34.841 26.3533 34.8271 26.3428 34.8201 26.3359C35.6201 25.842 36.3192 25.1672 36.9175 24.3116C36.6531 23.1221 36.4827 21.5256 36.4062 19.5222H33.9019V20.9517H35.9471C35.9471 20.9586 35.9436 21.0665 35.9366 21.2751C35.9088 23.209 35.8427 24.3394 35.7384 24.6664C35.7105 24.7359 35.6827 24.7916 35.6549 24.8333C35.5297 25.0072 35.3488 25.1081 35.1123 25.1359C34.8897 25.1568 34.5697 25.1568 34.1523 25.1359C34.1175 24.8368 34.0584 24.6107 33.9749 24.4577C34.2184 24.4785 34.4967 24.489 34.8097 24.489C34.9419 24.482 35.0253 24.4472 35.0601 24.3846C35.1645 24.2455 35.2305 23.3342 35.2584 21.6508C35.2584 21.6438 35.2584 21.6369 35.2584 21.6299H33.9019V22.0995C33.8949 24.3185 33.4567 25.9359 32.5871 26.9515C32.455 26.7776 32.2706 26.6176 32.0341 26.4715C32.0132 26.4646 31.9993 26.4576 31.9924 26.4507C32.7367 25.595 33.1297 24.2907 33.1715 22.5377C33.1715 22.3916 33.1715 22.2421 33.1715 22.089V18.7917H36.3853C36.3644 18.2561 36.354 17.71 36.354 17.1535H37.1157C37.1157 17.8978 37.1192 18.4439 37.1261 18.7917H38.5557C38.2496 18.3883 37.8461 17.9883 37.3453 17.5918C37.3383 17.5779 37.3314 17.5709 37.3244 17.5709L37.8566 17.2266C38.4339 17.6579 38.8583 18.0578 39.1296 18.4265L38.5974 18.7917H39.38V19.5222H37.147C37.1957 20.8786 37.3105 22.1621 37.4914 23.3725C37.8809 22.6421 38.2044 21.7551 38.4618 20.7117ZM57.223 19.4074H52.8092V20.8473H56.2422V24.5933C56.2422 24.9759 56.1378 25.2263 55.9291 25.3446C55.8804 25.3655 55.8317 25.3863 55.783 25.4072C55.5048 25.5046 54.8787 25.5533 53.9048 25.5533C53.87 25.3516 53.7796 25.0907 53.6335 24.7707C54.1135 24.7846 54.6283 24.7916 55.1778 24.7916C55.3309 24.7498 55.4109 24.6838 55.4178 24.5933V21.6091H52.8092V26.9411H51.9953V21.6091H49.5536V25.595H48.7606V20.8473H51.9953V19.4074H47.665V18.6248H51.9849V17.1118H52.8196V18.6248H57.223V19.4074ZM23.9943 39.1325H25.2047V37.5151H23.9943V39.1325ZM27.1247 37.5151H25.9143V39.1325H27.1247V37.5151ZM26.7073 40.2385L27.3229 40.0299C27.8516 40.7046 28.2446 41.3933 28.502 42.0959C28.5438 42.2002 28.5751 42.2941 28.5959 42.3776L27.9386 42.6072C27.876 42.3776 27.7681 42.1028 27.6151 41.7829C26.669 41.8524 25.0552 41.9707 22.7735 42.1376L22.7109 41.4072C22.9961 41.3933 23.5004 41.3655 24.2239 41.3237C24.6552 41.3029 24.9821 41.2855 25.2047 41.2716V39.769H23.3578V36.8682H25.2047V35.9187C24.4604 35.9882 23.8169 36.0334 23.2743 36.0543C23.2326 35.8665 23.1596 35.6717 23.0552 35.47C25.0586 35.3309 26.5299 35.1326 27.469 34.8752L28.022 35.4491C27.4099 35.6091 26.7073 35.7378 25.9143 35.8352V36.8682H27.8029V39.769H25.9143V41.2298L27.2916 41.1463C27.1595 40.9098 26.9647 40.6072 26.7073 40.2385ZM21.9909 33.7379H29.2742C29.2603 37.856 29.3577 40.4159 29.5664 41.4176C29.6637 41.8559 29.782 42.0785 29.9211 42.0855C30.0324 42.0715 30.102 41.5185 30.1298 40.4264C30.2829 40.6559 30.4463 40.8472 30.6202 41.0003C30.5715 41.9602 30.4429 42.5446 30.2342 42.7533C30.1298 42.8576 29.9976 42.9098 29.8376 42.9098C29.2811 42.9098 28.9125 42.1689 28.7316 40.6872C28.6064 39.7064 28.5333 37.7899 28.5125 34.9378C28.5125 34.6874 28.5125 34.5309 28.5125 34.4683H22.7422V37.1604C22.7352 39.769 22.2726 41.6924 21.3544 42.9306C21.2083 42.7776 20.9996 42.628 20.7283 42.482C21.5214 41.4316 21.9422 39.8351 21.9909 37.6925C21.9909 37.5256 21.9909 37.3482 21.9909 37.1604V33.7379ZM42.0251 35.8456L42.5469 36.0439C42.1364 38.2003 41.3086 39.8977 40.0635 41.1359C39.7713 41.4211 39.4687 41.6715 39.1557 41.8872C39.0165 41.6785 38.8218 41.4768 38.5713 41.282C38.5574 41.2681 38.5435 41.2576 38.5296 41.2507C39.6774 40.5342 40.5504 39.4455 41.1486 37.9847C41.3156 37.5604 41.4547 37.1221 41.566 36.6699H38.78V35.8769H41.8582L42.0251 35.8456ZM47.3676 34.8856L48.0772 35.3969C47.0546 36.5169 46.0842 37.4386 45.1659 38.1621C46.0703 39.7342 47.1833 40.8055 48.505 41.3759C48.2476 41.5916 48.0493 41.8315 47.9102 42.0959C46.192 41.2472 44.8668 39.616 43.9347 37.2021V41.7829C43.9347 42.242 43.806 42.548 43.5486 42.7011C43.5068 42.722 43.4686 42.7393 43.4338 42.7533C43.1347 42.8646 42.4808 42.9202 41.4721 42.9202C41.4373 42.6837 41.333 42.395 41.1591 42.0541C41.5139 42.0681 42.0669 42.075 42.8182 42.075C42.999 42.0263 43.0964 41.9289 43.1103 41.7829V33.1848H43.9347V35.1152C44.1781 36.0126 44.4773 36.8195 44.832 37.536C45.8477 36.6456 46.6685 35.7934 47.2946 34.9796C47.3224 34.9448 47.3467 34.9135 47.3676 34.8856ZM59.4925 39.362H57.6352V41.1881H59.4925V39.362ZM59.3986 35.4387H57.6352V37.0143H59.3986V35.4387ZM57.6352 37.6821V38.6734H60.202V41.8663H57.6352V42.5863H56.9047V34.7604H57.8021C58.0038 34.19 58.1569 33.6544 58.2612 33.1535L59.1169 33.2787C58.9708 33.7031 58.776 34.197 58.5325 34.7604H60.0977V37.6821H57.6352ZM66.1915 34.437H63.708V35.7517H65.868V40.4785C65.861 40.8472 65.7567 41.0803 65.5549 41.1777C65.3602 41.2611 64.9671 41.3029 64.3759 41.3029C64.355 41.129 64.2819 40.8994 64.1567 40.6142C64.4141 40.6211 64.6889 40.6246 64.9811 40.6246C65.0715 40.6107 65.1202 40.5585 65.1271 40.4681V36.4717H63.708V42.8993H62.9672V36.4717H61.6524V41.3133H60.922V35.7517H62.9672V34.437H60.5255V33.717H66.1915V34.437Z" fill="black"/>
<path d="M27.7443 57.1844H27.3269C27.0069 57.6923 26.6695 58.1305 26.3148 58.4992C26.0574 58.3044 25.8417 58.1618 25.6678 58.0714C26.3356 57.4662 26.8608 56.6523 27.2434 55.6297C27.2504 55.6088 27.2573 55.5914 27.2643 55.5775L28.0156 55.7654C27.9599 55.9323 27.8451 56.1932 27.6712 56.5479H30.4781V57.1844H28.5164C28.7112 57.5949 28.8399 57.9218 28.9025 58.1653L28.2243 58.4366C28.1547 58.1305 27.9947 57.7131 27.7443 57.1844ZM30.2381 60.9513H27.8486C27.8208 61.0696 27.7791 61.2435 27.7234 61.473C27.6678 61.6817 27.6295 61.8348 27.6086 61.9321H30.2381V60.9513ZM31.0103 59.1983V60.2731H33.6711V59.1983H31.0103ZM31.0103 61.9321H35.0693C35.0693 61.9391 35.0623 62.0469 35.0484 62.2556C34.9232 63.5147 34.7597 64.2834 34.558 64.5616C34.5302 64.5964 34.5058 64.6242 34.485 64.6451C34.3111 64.8051 34.085 64.8921 33.8067 64.906C33.5006 64.9268 33.052 64.9268 32.4607 64.906C32.4468 64.6069 32.3772 64.3634 32.252 64.1756C32.5998 64.2034 33.0033 64.2173 33.4624 64.2173C33.6572 64.2103 33.7824 64.186 33.838 64.1443C33.9911 63.9773 34.1163 63.4695 34.2137 62.6208H31.0103V65.3755H30.2381V62.8608C29.4103 63.6886 28.3425 64.3738 27.0347 64.9164C26.7773 65.0277 26.5269 65.1216 26.2834 65.1981C26.1304 64.9547 25.9635 64.746 25.7826 64.5721C26.9721 64.2382 28.0573 63.7199 29.0382 63.0173C29.219 62.8852 29.386 62.753 29.539 62.6208H27.4312C27.4104 62.6765 27.386 62.7565 27.3582 62.8608C27.3443 62.9165 27.3339 62.9547 27.3269 62.9756L26.5547 62.8608C26.826 61.9565 27.0452 61.0939 27.2121 60.2731H30.2381V59.1983H26.6904V58.5201H34.4537V60.9513H31.0103V61.9321ZM31.845 56.5479H35.4345V57.1844H33.0554C33.3546 57.581 33.5598 57.9149 33.6711 58.1862L32.972 58.4575C32.8398 58.0818 32.5894 57.6575 32.2207 57.1844H31.459C31.1251 57.6714 30.7564 58.0957 30.3529 58.4575C30.1442 58.2696 29.932 58.1166 29.7164 57.9983C30.4468 57.421 30.9964 56.6836 31.365 55.7862C31.3998 55.7097 31.4277 55.6401 31.4485 55.5775L32.2102 55.7654C32.1268 55.974 32.005 56.2349 31.845 56.5479ZM39.7022 56.6523H47.7159V57.4453H39.7022V56.6523ZM40.3909 60.1165H46.8812V60.92H40.3909V60.1165ZM39.097 63.7999H48.2898V64.6034H39.097V63.7999ZM58.7243 57.0697H57.8687C57.5904 57.4731 57.3365 57.7792 57.107 57.9879C56.9678 57.8836 56.7452 57.7583 56.4392 57.6123C57.0235 57.1184 57.4652 56.4436 57.7643 55.588L58.5365 55.7132C58.4878 55.894 58.38 56.148 58.213 56.4749H61.4582V57.0697H59.5695C59.806 57.3897 59.9591 57.6157 60.0286 57.7479L59.3295 57.9775C59.1904 57.6853 58.9887 57.3827 58.7243 57.0697ZM59.4652 58.3322L60.0078 58.0192C60.5086 58.4505 60.8808 58.8505 61.1242 59.2192L60.5399 59.5635C60.2964 59.174 59.9382 58.7635 59.4652 58.3322ZM54.227 57.0697H53.6844C53.3158 57.5983 52.954 58.0122 52.5993 58.3114C52.5297 58.2557 52.3071 58.1305 51.9315 57.9357C52.634 57.3931 53.1801 56.6662 53.5697 55.7549C53.5975 55.6923 53.6218 55.6332 53.6427 55.5775L54.4149 55.734C54.3244 55.9567 54.2062 56.2036 54.0601 56.4749H56.6687V57.0697H55.0201C55.194 57.3757 55.3053 57.6192 55.354 57.8001L54.6549 58.0192C54.5922 57.7757 54.4496 57.4592 54.227 57.0697ZM57.7435 64.1025L57.733 64.4469C58.1852 64.1269 58.5713 63.786 58.8913 63.4243C58.5991 62.5686 58.3904 61.5565 58.2652 60.3878H56.2305V61.0243H57.6913V61.5043H56.2305V62.0782H57.6078V62.5686H56.2305V63.1321H57.7539V63.6225H56.2305V64.186L57.7435 64.1025ZM54.5609 60.3878V64.2799L55.5627 64.2277V60.3878H54.5609ZM55.6774 59.7826H57.2948C57.1209 59.5531 56.8531 59.2853 56.4913 58.9792C56.2826 59.2992 56.0113 59.567 55.6774 59.7826ZM60.3834 60.6487L61.0408 60.8157C60.7486 61.8243 60.2999 62.7217 59.6947 63.5078C59.9869 64.2173 60.3138 64.5756 60.6756 64.5825C60.8356 64.5825 60.9399 64.3982 60.9886 64.0295C61.0025 63.9043 61.0129 63.7617 61.0199 63.6017C61.2077 63.7686 61.399 63.8834 61.5938 63.946C61.5242 64.6277 61.3608 65.0451 61.1034 65.1981C60.9782 65.2677 60.8182 65.3025 60.6234 65.3025C60.053 65.2886 59.566 64.8886 59.1626 64.1025C58.6617 64.6103 58.0774 65.0555 57.4096 65.4381C57.2844 65.2503 57.1278 65.0799 56.94 64.9268C57.0791 64.8573 57.2322 64.7668 57.3991 64.6555C55.4235 64.7947 53.674 64.9164 52.1506 65.0208L52.0358 64.4051C52.2097 64.3982 52.5019 64.3843 52.9123 64.3634C53.3436 64.3356 53.674 64.3182 53.9036 64.3112V63.6538H52.3488V63.1634H53.9036V62.5686H52.5784V62.0782H53.9036V61.5043H52.4636V61.0243H53.9036V60.3878H51.9836V59.7826H52.7245C52.5923 59.6087 52.4497 59.4661 52.2967 59.3548C53.0549 58.9792 53.5175 58.4609 53.6844 57.8001L54.3105 57.8836C54.234 58.1409 54.1749 58.3183 54.1331 58.4157C54.5783 58.7844 54.8879 59.0905 55.0618 59.334L54.5818 59.72C54.4079 59.4557 54.154 59.1844 53.8201 58.9061C53.5766 59.2192 53.2323 59.5113 52.7871 59.7826H55.5105C55.2879 59.56 55.1522 59.4348 55.1035 59.407C55.7713 59.0244 56.1783 58.5131 56.3244 57.8731L56.9504 57.9566C56.8948 58.1792 56.8391 58.3531 56.7835 58.4783C57.2704 58.8609 57.6078 59.1774 57.7956 59.4279L57.3574 59.7826H58.213C58.1643 59.1357 58.1365 58.5235 58.1295 57.9462H58.8808C58.8808 58.6348 58.9052 59.247 58.9539 59.7826H61.5625V60.3878H59.006C59.0965 61.2226 59.2356 62.0121 59.4234 62.7565C59.8756 62.1026 60.1956 61.4 60.3834 60.6487Z" fill="black"/>
<path d="M52.1349 105.38V106.609H45.1622V112.569H43.8673V106.609H36.9942V105.38H43.8673V99.437H37.8907V98.2085H51.172V99.437H45.1622V105.38H52.1349ZM39.0694 100.616L40.1817 100.267C41.0229 101.75 41.5597 103.029 41.7921 104.102L40.5968 104.501C40.3311 103.349 39.822 102.055 39.0694 100.616ZM48.0841 104.567L47.005 104.202C47.6912 103.062 48.3054 101.723 48.8477 100.184L50.1759 100.566C49.3901 102.304 48.6928 103.637 48.0841 104.567Z" fill="black"/>
<line x1="13" y1="71.1884" x2="76.0411" y2="71.1883" stroke="black" stroke-width="0.80137"/>
<circle cx="43.8904" cy="103.89" r="13.6233" stroke="black" stroke-width="0.534247"/>
</svg>
